<?xml version="1.0" encoding="UTF-8"?>
<svg version="1.1" xmlns="http://www.w3.org/2000/svg" width="512" height="512">
<path d="M0 0 C1.12855637 0.71277244 2.23681107 1.45969793 3.3125 2.25 C4.199375 2.8275 5.08625 3.405 6 4 C12.08730679 9.92278499 14.6647423 17.36261235 17.17578125 25.3046875 C17.52512222 26.37938797 17.8744632 27.45408844 18.23439026 28.56135559 C19.37501466 32.07929892 20.50010948 35.60199742 21.625 39.125 C22.4165738 41.57687168 23.20906629 44.02844693 24.00244141 46.47973633 C26.04796885 52.81002978 28.07998425 59.14454152 30.10662842 65.480896 C31.28554735 69.16575608 32.46680167 72.84985844 33.64892578 76.53369141 C36.50069527 85.42192704 39.35189938 94.31032344 42.18481445 103.20458984 C42.49910904 104.19104492 42.81340363 105.1775 43.13722229 106.19384766 C43.73668632 108.07585783 44.33569492 109.95801314 44.93418884 111.84033203 C46.7783093 117.62582905 48.68310411 123.38438073 50.68798828 129.11645508 C51.3125 131.25 51.3125 131.25 51.3125 134.25 C52.58101807 134.51087402 53.84953613 134.77174805 55.15649414 135.04052734 C60.49276645 136.2295142 65.62572999 137.87403456 70.80859375 139.6015625 C71.81510986 139.93286163 72.82162598 140.26416077 73.85864258 140.60549927 C77.15698502 141.69166085 80.45345163 142.78340684 83.75 143.875 C88.42618356 145.41680279 93.10354258 146.95501481 97.78125 148.4921875 C98.97624619 148.88515015 100.17124237 149.27811279 101.40245056 149.6829834 C109.72448025 152.41456665 118.05994717 155.10137395 126.40625 157.7578125 C127.53547379 158.11739044 128.66469757 158.47696838 129.82814026 158.84744263 C135.22604787 160.56482868 140.62567349 162.27662539 146.02709961 163.98291016 C179.69952229 174.65636117 179.69952229 174.65636117 186.3125 187.25 C188.57127421 194.02632264 188.72871615 204.48090236 185.5625 210.9375 C184.84972756 212.06605637 184.10280207 213.17431107 183.3125 214.25 C182.735 215.136875 182.1575 216.02375 181.5625 216.9375 C175.74560604 222.91597435 168.47601274 225.51085195 160.66796875 227.96484375 C159.641306 228.29727585 158.61464325 228.62970795 157.55686951 228.97221375 C154.20775469 230.05413548 150.85399991 231.12082938 147.5 232.1875 C145.16485669 232.93886961 142.83006199 233.69132349 140.49560547 234.44482422 C135.74101904 235.97817405 130.98474137 237.50609524 126.22705078 239.02978516 C117.02220581 241.98071863 107.83533039 244.9862341 98.64761353 247.98995972 C91.92266164 250.18612355 85.19312392 252.36820738 78.46398926 254.55151367 C76.44020622 255.20853986 74.41681336 255.86675177 72.39355469 256.52539062 C69.20134401 257.56323481 66.00742673 258.59555382 62.8125 259.625 C61.95221191 259.90553223 61.09192383 260.18606445 60.20556641 260.47509766 C57.13123582 261.45896179 54.56195169 262.25 51.3125 262.25 C50.92118896 264.1527771 50.92118896 264.1527771 50.52197266 266.09399414 C49.3329858 271.43026645 47.68846544 276.56322999 45.9609375 281.74609375 C45.62963837 282.75260986 45.29833923 283.75912598 44.95700073 284.79614258 C43.87083915 288.09448502 42.77909316 291.39095163 41.6875 294.6875 C40.14569721 299.36368356 38.60748519 304.04104258 37.0703125 308.71875 C36.67734985 309.91374619 36.28438721 311.10874237 35.8795166 312.33995056 C33.14793335 320.66198025 30.46112605 328.99744717 27.8046875 337.34375 C27.44510956 338.47297379 27.08553162 339.60219757 26.71505737 340.76564026 C24.99767132 346.16354787 23.28587461 351.56317349 21.57958984 356.96459961 C10.90613883 390.63702229 10.90613883 390.63702229 -1.6875 397.25 C-8.46382264 399.50877421 -18.91840236 399.66621615 -25.375 396.5 C-26.50355637 395.78722756 -27.61181107 395.04030207 -28.6875 394.25 C-29.574375 393.6725 -30.46125 393.095 -31.375 392.5 C-37.10429566 386.92555017 -39.76318401 380.00212643 -42.11328125 372.5078125 C-42.41804886 371.56683212 -42.72281647 370.62585175 -43.03681946 369.65635681 C-44.03494402 366.56580832 -45.01750545 363.47054907 -46 360.375 C-46.69809981 358.20338705 -47.39717245 356.03208662 -48.09716797 353.86108398 C-49.93381191 348.15534041 -51.75707742 342.44541556 -53.57659912 336.73419189 C-55.40593753 330.99671686 -57.24442805 325.26217594 -59.08203125 319.52734375 C-61.15332372 313.06213037 -63.22316381 306.59648387 -65.2824707 300.12744141 C-65.90958383 298.15915288 -66.53677899 296.19089048 -67.1640625 294.22265625 C-67.46175034 293.28748169 -67.75943817 292.35230713 -68.06614685 291.38879395 C-69.50403903 286.88796335 -70.96559645 282.3972749 -72.47949219 277.92138672 C-72.76118256 277.08804306 -73.04287292 276.2546994 -73.33309937 275.39610291 C-73.86100226 273.842181 -74.39298823 272.28963774 -74.92984009 270.73878479 C-75.93724217 267.77979485 -76.6875 265.39992031 -76.6875 262.25 C-78.56997437 261.86545654 -78.56997437 261.86545654 -80.49047852 261.47314453 C-86.06444081 260.23101741 -91.42626016 258.48412431 -96.83984375 256.6796875 C-97.91321991 256.32610168 -98.98659607 255.97251587 -100.09249878 255.60821533 C-102.40256606 254.84692741 -104.71201684 254.08376666 -107.02090454 253.31890869 C-113.16990396 251.28196379 -119.32316787 249.25799677 -125.4765625 247.234375 C-126.10478472 247.02761768 -126.73300694 246.82086037 -127.38026619 246.60783768 C-136.60127497 243.5739652 -145.83637618 240.58647307 -155.0859375 237.640625 C-156.22585648 237.27748199 -157.36577545 236.91433899 -158.54023743 236.54019165 C-163.96442274 234.81395158 -169.39041138 233.09355984 -174.81811523 231.37841797 C-176.78111077 230.75495689 -178.74408399 230.13142557 -180.70703125 229.5078125 C-181.57456024 229.23559875 -182.44208923 228.96338501 -183.33590698 228.68292236 C-195.88328537 224.68814424 -205.28110808 221.45022047 -211.6875 209.25 C-213.94627421 202.47367736 -214.10371615 192.01909764 -210.9375 185.5625 C-210.22472756 184.43394363 -209.47780207 183.32568893 -208.6875 182.25 C-208.11 181.363125 -207.5325 180.47625 -206.9375 179.5625 C-201.18708124 173.65234738 -194.00915753 171.0370447 -186.2890625 168.60546875 C-184.77730186 168.11488731 -184.77730186 168.11488731 -183.23500061 167.61439514 C-179.93075578 166.54501987 -176.6217766 165.49118996 -173.3125 164.4375 C-171.00075813 163.69266166 -168.68932023 162.94687928 -166.37817383 162.20019531 C-160.3601653 160.25909279 -154.33792529 158.33150271 -148.31414795 156.40838623 C-143.57715241 154.8953443 -138.84184787 153.37704979 -134.10650635 151.85884094 C-126.45570679 149.40591724 -118.80458246 146.95408648 -111.14892578 144.51635742 C-109.1865221 143.89111749 -107.22411971 143.26587348 -105.26171875 142.640625 C-104.33772278 142.34666336 -103.41372681 142.05270172 -102.46173096 141.74983215 C-98.31491616 140.42650086 -94.17561343 139.08719131 -90.05322266 137.68945312 C-89.35381058 137.45240662 -88.6543985 137.21536011 -87.93379211 136.97113037 C-86.10886735 136.34866493 -84.28637285 135.71908666 -82.46411133 135.08886719 C-79.6875 134.25 -79.6875 134.25 -76.6875 134.25 C-76.43564941 133.00855225 -76.18379883 131.76710449 -75.92431641 130.48803711 C-74.62907654 124.67657665 -72.77968891 119.08548113 -70.8984375 113.44140625 C-70.52261032 112.30121536 -70.14678314 111.16102448 -69.75956726 109.98628235 C-68.74189634 106.90010179 -67.7206819 103.81512188 -66.69795609 100.73061371 C-64.75588138 94.86849326 -62.82554543 89.00248966 -60.89453125 83.13671875 C-60.67698874 82.4763839 -60.45944622 81.81604904 -60.23531151 81.13570404 C-57.10657977 71.63477168 -54.03347059 62.11764916 -51.01171875 52.58203125 C-50.64737732 51.43378372 -50.28303589 50.28553619 -49.90765381 49.10249329 C-48.18475593 43.66811436 -46.46990743 38.23135102 -44.76513672 32.79125977 C-44.14704024 30.83732946 -43.52872581 28.88346809 -42.91015625 26.9296875 C-42.50660164 25.62720818 -42.50660164 25.62720818 -42.09489441 24.29841614 C-38.55638495 13.17596356 -34.27441819 4.90215345 -23.6875 -0.75 C-16.91117736 -3.00877421 -6.45659764 -3.16621615 0 0 Z M-13.6875 45.25 C-16.75817143 54.57161801 -19.82783379 63.89356761 -22.89635181 73.2158947 C-24.59905882 78.3886974 -26.30245983 83.56127077 -28.00648689 88.73363876 C-28.83501284 91.2492164 -29.66291062 93.76500007 -30.49069214 96.28082275 C-31.59322138 99.63161909 -32.69831118 102.98155653 -33.80496216 106.33099365 C-36.52981752 114.59153465 -39.20593582 122.86337984 -41.79052734 131.16894531 C-42.52636171 133.51405833 -43.26322026 135.85884723 -44.00034142 138.20355606 C-44.68091312 140.38659437 -45.34452554 142.57431152 -46.00776672 144.76266479 C-46.42319991 146.08699533 -46.83942898 147.41107656 -47.2565918 148.73486328 C-47.78267281 150.4491301 -47.78267281 150.4491301 -48.31938171 152.19802856 C-50.23888975 156.48002943 -52.78300133 159.21124081 -56.90927124 161.46180725 C-57.66285919 161.73617111 -58.41644714 162.01053497 -59.19287109 162.29321289 C-60.06659363 162.61524689 -60.94031616 162.93728088 -61.84051514 163.26907349 C-62.78002014 163.59277924 -63.71952515 163.91648499 -64.6875 164.25 C-65.66680481 164.58828827 -66.64610962 164.92657654 -67.65509033 165.27511597 C-70.96326575 166.3931069 -74.28053942 167.47938241 -77.6015625 168.55859375 C-78.8347673 168.96221634 -80.06797211 169.36583893 -81.33854675 169.7816925 C-84.64723623 170.86449952 -87.95722994 171.94326443 -91.2675209 173.02116394 C-94.69432711 174.13775459 -98.11990932 175.25808834 -101.5456543 176.37792969 C-109.59128651 179.00702223 -117.63916441 181.62919684 -125.6875 184.25 C-127.41199371 184.8117392 -127.41199371 184.8117392 -129.17132568 185.38482666 C-141.34051636 189.34873315 -153.51201373 193.30547226 -165.6875 197.25 C-165.6875 197.91 -165.6875 198.57 -165.6875 199.25 C-156.36588199 202.32067143 -147.04393239 205.39033379 -137.7216053 208.45885181 C-132.5488026 210.16155882 -127.37622923 211.86495983 -122.20386124 213.56898689 C-119.6882836 214.39751284 -117.17249993 215.22541062 -114.65667725 216.05319214 C-111.30588091 217.15572138 -107.95594347 218.26081118 -104.60650635 219.36746216 C-96.34596535 222.09231752 -88.07412016 224.76843582 -79.76855469 227.35302734 C-77.42344167 228.08886171 -75.07865277 228.82572026 -72.73394394 229.56284142 C-70.55090563 230.24341312 -68.36318848 230.90702554 -66.17483521 231.57026672 C-64.85050467 231.98569991 -63.52642344 232.40192898 -62.20263672 232.8190918 C-60.4883699 233.34517281 -60.4883699 233.34517281 -58.73947144 233.88188171 C-54.45747057 235.80138975 -51.72625919 238.34550133 -49.47569275 242.47177124 C-49.20132889 243.22535919 -48.92696503 243.97894714 -48.64428711 244.75537109 C-48.32225311 245.62909363 -48.00021912 246.50281616 -47.66842651 247.40301514 C-47.18286789 248.81227264 -47.18286789 248.81227264 -46.6875 250.25 C-46.34921173 251.22930481 -46.01092346 252.20860962 -45.66238403 253.21759033 C-44.5443931 256.52576575 -43.45811759 259.84303942 -42.37890625 263.1640625 C-41.97528366 264.3972673 -41.57166107 265.63047211 -41.1558075 266.90104675 C-40.07300048 270.20973623 -38.99423557 273.51972994 -37.91633606 276.8300209 C-36.79974541 280.25682711 -35.67941166 283.68240932 -34.55957031 287.1081543 C-31.93047777 295.15378651 -29.30830316 303.20166441 -26.6875 311.25 C-26.3130072 312.39966248 -25.9385144 313.54932495 -25.55267334 314.73382568 C-21.58876685 326.90301636 -17.63202774 339.07451373 -13.6875 351.25 C-13.0275 351.25 -12.3675 351.25 -11.6875 351.25 C-8.46908147 341.4854491 -5.25175368 331.72053948 -2.03568459 321.9552145 C-0.25040998 316.53450373 1.53563231 311.11404681 3.3223381 305.6938076 C4.47809951 302.18667663 5.63269303 298.67916145 6.78739166 295.17168045 C7.64753247 292.56134031 8.50978612 289.95170482 9.37225342 287.34213257 C12.0523169 279.21992407 14.69174029 271.08938397 17.21972656 262.91845703 C17.67150627 261.47070942 18.12353582 260.02303975 18.57583618 258.57545471 C19.40459249 255.92284567 20.21347304 253.26532366 21.01083374 250.60313416 C24.46848368 239.52380379 24.46848368 239.52380379 29.3125 236.25 C32.56906194 234.66656665 35.8913576 233.4303348 39.3125 232.25 C40.24431091 231.92678772 41.17612183 231.60357544 42.13616943 231.27056885 C45.22672397 230.22201881 48.32622133 229.20498753 51.4296875 228.1953125 C52.58523132 227.8166655 53.74077515 227.43801849 54.93133545 227.04789734 C58.04057668 226.03014326 61.15079423 225.01545298 64.26160431 224.00250626 C66.19416378 223.37282877 68.12629646 222.74185906 70.05828857 222.11044312 C93.76874434 214.36170494 117.52321968 206.75328874 141.3125 199.25 C141.3125 198.59 141.3125 197.93 141.3125 197.25 C139.51969604 196.68007324 139.51969604 196.68007324 137.69067383 196.09863281 C126.06472845 192.40014155 114.44494122 188.68276206 102.83030701 184.94889832 C96.23510598 182.82890762 89.63823376 180.71440523 83.03808594 178.60986328 C76.73956573 176.60119175 70.44505194 174.58042 64.15445614 172.54706383 C60.74276895 171.44467122 57.32954833 170.34770605 53.91201782 169.2635498 C50.06469468 168.04277522 46.2256186 166.79779181 42.38671875 165.55078125 C41.23678436 165.18984879 40.08684998 164.82891632 38.90206909 164.45704651 C28.70322232 161.10354955 28.70322232 161.10354955 25.3125 156.25 C23.71751504 152.99811775 22.49162207 149.67221629 21.3125 146.25 C20.97421173 145.27069519 20.63592346 144.29139038 20.28738403 143.28240967 C19.1693931 139.97423425 18.08311759 136.65696058 17.00390625 133.3359375 C16.60028366 132.1027327 16.19666107 130.86952789 15.7808075 129.59895325 C14.69800048 126.29026377 13.61923557 122.98027006 12.54133606 119.6699791 C11.42474541 116.24317289 10.30441166 112.81759068 9.18457031 109.3918457 C6.55547777 101.34621349 3.93330316 93.29833559 1.3125 85.25 C0.7507608 83.52550629 0.7507608 83.52550629 0.17767334 81.76617432 C-3.78623315 69.59698364 -7.74297226 57.42548627 -11.6875 45.25 C-12.3475 45.25 -13.0075 45.25 -13.6875 45.25 Z " fill="#722BDE" transform="translate(212.6875,97.75)"/>
<path d="M0 0 C6.48843322 6.16401156 8.48864983 13.60774811 11.16015625 21.953125 C11.59488604 23.2884797 12.03040115 24.62357897 12.46665955 25.95843506 C13.60969123 29.46345307 14.74145825 32.9720102 15.87103271 36.48138428 C16.78800656 39.32409222 17.71266851 42.1642688 18.63782597 45.00432205 C20.56224694 50.91206092 22.48030988 56.82185404 24.38696289 62.73535156 C24.76174271 63.86905182 25.13652252 65.00275208 25.5226593 66.17080688 C26.5 69.375 26.5 69.375 27.0900116 72.32601929 C28.08828565 77.27864174 28.08828565 77.27864174 31.48777771 80.77990723 C34.18098937 81.94894607 36.83970007 82.78249271 39.66796875 83.5703125 C41.20763054 84.05333328 41.20763054 84.05333328 42.77839661 84.54611206 C46.07090692 85.56979077 49.37713551 86.53581617 52.6875 87.5 C54.83255502 88.15370945 56.97645255 88.81122984 59.11914062 89.47265625 C63.40840324 90.79228509 67.70130184 92.09883844 71.99755859 93.39550781 C78.59482273 95.39689843 85.17687409 97.43855907 91.73828125 99.5546875 C92.73280807 99.86391144 93.7273349 100.17313538 94.7519989 100.49172974 C101.03831392 102.5470354 105.95874111 104.71734992 109.8515625 110.3203125 C111.66746784 116.0743258 111.3907289 122.45650698 108.875 127.875 C102.86737723 134.19881344 95.83666468 136.17641616 87.68359375 138.78125 C85.81152 139.39111755 85.81152 139.39111755 83.90162659 140.01330566 C80.59009976 141.09184239 77.27504977 142.15912422 73.95916748 143.22418213 C70.62603294 144.29718921 67.29666195 145.38174327 63.96679688 146.46484375 C59.04792257 148.06216525 54.12786634 149.65576921 49.20483398 151.24023438 C48.09930679 151.60562317 46.9937796 151.97101196 45.85475159 152.34747314 C42.5 153.375 42.5 153.375 38.91172791 154.1774292 C32.6336809 155.52979208 32.6336809 155.52979208 27.82551575 159.45263672 C26.58724951 162.15379163 25.77054459 164.76801084 25.01171875 167.640625 C24.69394974 168.66565125 24.37618073 169.69067749 24.04878235 170.74676514 C23.04400788 174.02664438 22.11466548 177.32244188 21.1875 180.625 C20.54862499 182.76582297 19.90478153 184.90516981 19.25585938 187.04296875 C17.96339085 191.31988385 16.69025907 195.6018225 15.43115234 199.88867188 C13.47844621 206.48875612 11.44780592 213.05974895 9.33203125 219.609375 C9.02206711 220.60414856 8.71210297 221.59892212 8.39274597 222.62384033 C6.33254766 228.90761007 4.15640915 233.83460328 -1.4453125 237.7265625 C-7.1993258 239.54246784 -13.58150698 239.2657289 -19 236.75 C-25.48843322 230.58598844 -27.48864983 223.14225189 -30.16015625 214.796875 C-30.59488604 213.4615203 -31.03040115 212.12642103 -31.46665955 210.79156494 C-32.60969123 207.28654693 -33.74145825 203.7779898 -34.87103271 200.26861572 C-35.78800656 197.42590778 -36.71266851 194.5857312 -37.63782597 191.74567795 C-39.56224694 185.83793908 -41.48030988 179.92814596 -43.38696289 174.01464844 C-43.76272461 172.88062088 -44.13848633 171.74659332 -44.52563477 170.57820129 C-45.5 167.375 -45.5 167.375 -46.06323242 164.4329071 C-47.07274299 159.39919512 -47.07274299 159.39919512 -50.62483215 155.92440796 C-53.52329525 154.68671748 -56.3967025 153.78242995 -59.4296875 152.92578125 C-60.52983185 152.57919968 -61.6299762 152.2326181 -62.76345825 151.87553406 C-66.28997061 150.77389367 -69.83057187 149.72987948 -73.375 148.6875 C-75.68997869 147.9771304 -78.00379827 147.26297177 -80.31640625 146.54492188 C-84.86166152 145.13870204 -89.41063337 143.74588637 -93.96386719 142.36572266 C-100.09433826 140.50182136 -106.21895713 138.62531454 -112.3203125 136.66796875 C-113.16705536 136.40800613 -114.01379822 136.14804352 -114.88619995 135.88020325 C-120.71454868 133.98135835 -125.25255572 131.60976085 -128.8515625 126.4296875 C-130.66746784 120.6756742 -130.3907289 114.29349302 -127.875 108.875 C-122.04503771 102.73819759 -115.35798227 100.74335877 -107.4453125 98.22265625 C-106.27096649 97.8406456 -105.09662048 97.45863495 -103.88668823 97.06504822 C-100.13553539 95.84719695 -96.38037021 94.64227561 -92.625 93.4375 C-90.13775239 92.63168749 -87.65077032 91.82505487 -85.1640625 91.01757812 C-83.34881073 90.43166145 -83.34881073 90.43166145 -81.49688721 89.83390808 C-79.09663064 89.05437092 -76.69970845 88.26448763 -74.30633545 87.46406555 C-69.37824331 85.83380802 -64.61565388 84.28291073 -59.47363281 83.5144043 C-55.21842582 82.8203667 -52.07262853 81.95192736 -48.5 79.375 C-43.95951178 72.39687072 -42.14584329 64.00597708 -40 56.0625 C-39.37597252 53.92591943 -38.74580402 51.79112247 -38.109375 49.65820312 C-36.84399509 45.39352928 -35.60430011 41.12265609 -34.3828125 36.84521484 C-32.47905988 30.24213714 -30.45927455 23.68273894 -28.34375 17.14453125 C-28.03304565 16.14951096 -27.72234131 15.15449066 -27.40222168 14.12931824 C-25.33713872 7.84809219 -23.15517335 2.91453811 -17.5546875 -0.9765625 C-11.8006742 -2.79246784 -5.41849302 -2.5157289 0 0 Z M-10.5 69.375 C-10.78198242 70.28789795 -11.06396484 71.2007959 -11.35449219 72.14135742 C-12.40940439 75.54611238 -13.47890211 78.94614034 -14.55273438 82.3449707 C-15.01437396 83.81313329 -15.47211493 85.28252792 -15.92578125 86.75317383 C-16.58077836 88.87401426 -17.24993972 90.98994255 -17.921875 93.10546875 C-18.11996765 93.75774948 -18.3180603 94.41003021 -18.52215576 95.08207703 C-20.08002939 99.91584104 -22.03153144 103.79807264 -26.40014648 106.58886719 C-33.00850069 109.29599944 -39.74619356 111.50104993 -46.5625 113.625 C-47.71427734 113.98851562 -48.86605469 114.35203125 -50.05273438 114.7265625 C-52.86705229 115.61406524 -55.68278171 116.49675657 -58.5 117.375 C-58.5 118.035 -58.5 118.695 -58.5 119.375 C-57.58710205 119.65698242 -56.6742041 119.93896484 -55.73364258 120.22949219 C-52.32888762 121.28440439 -48.92885966 122.35390211 -45.5300293 123.42773438 C-44.06186671 123.88937396 -42.59247208 124.34711493 -41.12182617 124.80078125 C-39.00098574 125.45577836 -36.88505745 126.12493972 -34.76953125 126.796875 C-34.11725052 126.99496765 -33.46496979 127.1930603 -32.79292297 127.39715576 C-27.95915896 128.95502939 -24.07692736 130.90653144 -21.28613281 135.27514648 C-18.57900056 141.88350069 -16.37395007 148.62119356 -14.25 155.4375 C-13.88648438 156.58927734 -13.52296875 157.74105469 -13.1484375 158.92773438 C-12.26093476 161.74205229 -11.37824343 164.55778171 -10.5 167.375 C-9.84 167.375 -9.18 167.375 -8.5 167.375 C-8.21801758 166.46210205 -7.93603516 165.5492041 -7.64550781 164.60864258 C-6.59059561 161.20388762 -5.52109789 157.80385966 -4.44726562 154.4050293 C-3.98562604 152.93686671 -3.52788507 151.46747208 -3.07421875 149.99682617 C-2.41922164 147.87598574 -1.75006028 145.76005745 -1.078125 143.64453125 C-0.88003235 142.99225052 -0.6819397 142.33996979 -0.47784424 141.66792297 C1.08002939 136.83415896 3.03153144 132.95192736 7.40014648 130.16113281 C14.00850069 127.45400056 20.74619356 125.24895007 27.5625 123.125 C28.71427734 122.76148438 29.86605469 122.39796875 31.05273438 122.0234375 C33.86705229 121.13593476 36.68278171 120.25324343 39.5 119.375 C39.5 118.715 39.5 118.055 39.5 117.375 C38.58710205 117.09301758 37.6742041 116.81103516 36.73364258 116.52050781 C33.32888762 115.46559561 29.92885966 114.39609789 26.5300293 113.32226562 C25.06186671 112.86062604 23.59247208 112.40288507 22.12182617 111.94921875 C20.00098574 111.29422164 17.88505745 110.62506028 15.76953125 109.953125 C15.11725052 109.75503235 14.46496979 109.5569397 13.79292297 109.35284424 C8.95915896 107.79497061 5.07692736 105.84346856 2.28613281 101.47485352 C-0.42099944 94.86649931 -2.62604993 88.12880644 -4.75 81.3125 C-5.11351562 80.16072266 -5.47703125 79.00894531 -5.8515625 77.82226562 C-6.73906524 75.00794771 -7.62175657 72.19221829 -8.5 69.375 C-9.16 69.375 -9.82 69.375 -10.5 69.375 Z " fill="#6068F4" transform="translate(401.5,1.625)"/>
<path d="M0 0 C5.54233401 2.5732265 8.7358833 6.64636907 10.86138916 12.28521729 C11.72754099 15.01417897 12.53100859 17.75565676 13.3203125 20.5078125 C13.94349909 22.56695594 14.56855641 24.62553398 15.1953125 26.68359375 C16.16799023 29.90896951 17.12818467 33.13610796 18.05664062 36.37451172 C18.96260489 39.51439312 19.91816725 42.63553791 20.8828125 45.7578125 C21.14675812 46.72453888 21.41070374 47.69126526 21.68264771 48.68728638 C22.89328006 52.49382618 23.74861214 55.18236054 27.17382812 57.42034912 C29.75638149 58.48214443 32.30502836 59.27363374 35 60 C36.48051879 60.49237979 37.95945873 60.98954091 39.43652344 61.4921875 C40.90979953 61.95633597 42.38411371 62.4172005 43.859375 62.875 C45.48578199 63.39029399 47.11208101 63.90592889 48.73828125 64.421875 C51.25382641 65.21558391 53.77020911 66.00629712 56.28857422 66.79101562 C58.75242374 67.56058072 61.21228372 68.34194901 63.671875 69.125 C64.41886658 69.35429199 65.16585815 69.58358398 65.93548584 69.81982422 C71.65275649 71.65309804 76.17962661 74.08381748 80.375 78.5 C82.77303575 83.66500009 82.75381535 88.4002288 82 94 C79.4267735 99.54233401 75.35363093 102.7358833 69.71478271 104.86138916 C66.98582103 105.72754099 64.24434324 106.53100859 61.4921875 107.3203125 C59.43304406 107.94349909 57.37446602 108.56855641 55.31640625 109.1953125 C52.09103049 110.16799023 48.86389204 111.12818467 45.62548828 112.05664062 C42.48560688 112.96260489 39.36446209 113.91816725 36.2421875 114.8828125 C35.27546112 115.14675812 34.30873474 115.41070374 33.31271362 115.68264771 C29.50617382 116.89328006 26.81763946 117.74861214 24.57965088 121.17382812 C23.51785557 123.75638149 22.72636626 126.30502836 22 129 C21.50762021 130.48051879 21.01045909 131.95945873 20.5078125 133.43652344 C20.04366403 134.90979953 19.5827995 136.38411371 19.125 137.859375 C18.60970601 139.48578199 18.09407111 141.11208101 17.578125 142.73828125 C16.78441609 145.25382641 15.99370288 147.77020911 15.20898438 150.28857422 C14.43941928 152.75242374 13.65805099 155.21228372 12.875 157.671875 C12.64570801 158.41886658 12.41641602 159.16585815 12.18017578 159.93548584 C10.34690196 165.65275649 7.91618252 170.17962661 3.5 174.375 C-1.66500009 176.77303575 -6.4002288 176.75381535 -12 176 C-17.54233401 173.4267735 -20.7358833 169.35363093 -22.86138916 163.71478271 C-23.72754099 160.98582103 -24.53100859 158.24434324 -25.3203125 155.4921875 C-25.94349909 153.43304406 -26.56855641 151.37446602 -27.1953125 149.31640625 C-28.16799023 146.09103049 -29.12818467 142.86389204 -30.05664062 139.62548828 C-30.96260489 136.48560688 -31.91816725 133.36446209 -32.8828125 130.2421875 C-33.14675812 129.27546112 -33.41070374 128.30873474 -33.68264771 127.31271362 C-34.89328006 123.50617382 -35.74861214 120.81763946 -39.17382812 118.57965088 C-41.75638149 117.51785557 -44.30502836 116.72636626 -47 116 C-48.48051879 115.50762021 -49.95945873 115.01045909 -51.43652344 114.5078125 C-52.90979953 114.04366403 -54.38411371 113.5827995 -55.859375 113.125 C-57.48578199 112.60970601 -59.11208101 112.09407111 -60.73828125 111.578125 C-63.25382641 110.78441609 -65.77020911 109.99370288 -68.28857422 109.20898438 C-70.75242374 108.43941928 -73.21228372 107.65805099 -75.671875 106.875 C-76.41886658 106.64570801 -77.16585815 106.41641602 -77.93548584 106.18017578 C-83.65275649 104.34690196 -88.17962661 101.91618252 -92.375 97.5 C-94.77303575 92.33499991 -94.75381535 87.5997712 -94 82 C-91.4267735 76.45766599 -87.35363093 73.2641167 -81.71478271 71.13861084 C-78.98582103 70.27245901 -76.24434324 69.46899141 -73.4921875 68.6796875 C-71.43304406 68.05650091 -69.37446602 67.43144359 -67.31640625 66.8046875 C-64.09103049 65.83200977 -60.86389204 64.87181533 -57.62548828 63.94335938 C-54.48560688 63.03739511 -51.36446209 62.08183275 -48.2421875 61.1171875 C-46.79209793 60.72126907 -46.79209793 60.72126907 -45.31271362 60.31735229 C-41.50617382 59.10671994 -38.81763946 58.25138786 -36.57965088 54.82617188 C-35.51785557 52.24361851 -34.72636626 49.69497164 -34 47 C-33.50762021 45.51948121 -33.01045909 44.04054127 -32.5078125 42.56347656 C-32.04366403 41.09020047 -31.5827995 39.61588629 -31.125 38.140625 C-30.60970601 36.51421801 -30.09407111 34.88791899 -29.578125 33.26171875 C-28.78441609 30.74617359 -27.99370288 28.22979089 -27.20898438 25.71142578 C-26.43941928 23.24757626 -25.65805099 20.78771628 -24.875 18.328125 C-24.64570801 17.58113342 -24.41641602 16.83414185 -24.18017578 16.06451416 C-22.34690196 10.34724351 -19.91618252 5.82037339 -15.5 1.625 C-10.33499991 -0.77303575 -5.5997712 -0.75381535 0 0 Z M-7 71 C-7.21914063 71.67546875 -7.43828125 72.3509375 -7.6640625 73.046875 C-9.72672195 78.84915279 -11.19778933 82.21493888 -17 85 C-20.375 86.25 -20.375 86.25 -23 87 C-23 87.66 -23 88.32 -23 89 C-22.32453125 89.21914063 -21.6490625 89.43828125 -20.953125 89.6640625 C-15.15084721 91.72672195 -11.78506112 93.19778933 -9 99 C-7.75 102.375 -7.75 102.375 -7 105 C-6.34 105 -5.68 105 -5 105 C-4.78085937 104.32453125 -4.56171875 103.6490625 -4.3359375 102.953125 C-2.27327805 97.15084721 -0.80221067 93.78506112 5 91 C8.375 89.75 8.375 89.75 11 89 C11 88.34 11 87.68 11 87 C10.32453125 86.78085937 9.6490625 86.56171875 8.953125 86.3359375 C3.15084721 84.27327805 -0.21493888 82.80221067 -3 77 C-4.25 73.625 -4.25 73.625 -5 71 C-5.66 71 -6.32 71 -7 71 Z " fill="#7916BB" transform="translate(406,336)"/>
<path d="M0 0 C4.63535813 2.15213056 8.01334219 5.23793392 10 10 C10.47845787 13.80651159 10.37844376 17.54638798 10.25 21.375 C10.23195313 22.39722656 10.21390625 23.41945313 10.1953125 24.47265625 C10.14839491 26.98274749 10.08276729 29.49087764 10 32 C10.63502441 31.97905273 11.27004883 31.95810547 11.92431641 31.93652344 C14.82438076 31.85295419 17.72419116 31.80121226 20.625 31.75 C21.62402344 31.71648437 22.62304688 31.68296875 23.65234375 31.6484375 C29.81229285 31.56684877 33.31627786 31.8867312 38 36 C41.62833663 39.81930172 42.31000458 42.88279006 42.5 48 C42.31000458 53.11720994 41.62833663 56.18069828 38 60 C32.53445691 64.79986797 27.68531815 64.48686229 20.625 64.25 C19.60277344 64.23195313 18.58054687 64.21390625 17.52734375 64.1953125 C15.01725251 64.14839491 12.50912236 64.08276729 10 64 C10.0314209 64.95253662 10.0314209 64.95253662 10.06347656 65.92431641 C10.14704581 68.82438076 10.19878774 71.72419116 10.25 74.625 C10.28351563 75.62402344 10.31703125 76.62304688 10.3515625 77.65234375 C10.43315123 83.81229285 10.1132688 87.31627786 6 92 C2.18069828 95.62833663 -0.88279006 96.31000458 -6 96.5 C-11.11720994 96.31000458 -14.18069828 95.62833663 -18 92 C-22.79986797 86.53445691 -22.48686229 81.68531815 -22.25 74.625 C-22.23195313 73.60277344 -22.21390625 72.58054687 -22.1953125 71.52734375 C-22.14839491 69.01725251 -22.08276729 66.50912236 -22 64 C-22.95253662 64.0314209 -22.95253662 64.0314209 -23.92431641 64.06347656 C-26.82438076 64.14704581 -29.72419116 64.19878774 -32.625 64.25 C-33.62402344 64.28351563 -34.62304688 64.31703125 -35.65234375 64.3515625 C-41.81229285 64.43315123 -45.31627786 64.1132688 -50 60 C-53.62833663 56.18069828 -54.31000458 53.11720994 -54.5 48 C-54.31000458 42.88279006 -53.62833663 39.81930172 -50 36 C-44.53445691 31.20013203 -39.68531815 31.51313771 -32.625 31.75 C-31.60277344 31.76804687 -30.58054687 31.78609375 -29.52734375 31.8046875 C-27.01725251 31.85160509 -24.50912236 31.91723271 -22 32 C-22.02094727 31.36497559 -22.04189453 30.72995117 -22.06347656 30.07568359 C-22.14704581 27.17561924 -22.19878774 24.27580884 -22.25 21.375 C-22.28351562 20.37597656 -22.31703125 19.37695312 -22.3515625 18.34765625 C-22.43315123 12.18770715 -22.1132688 8.68372214 -18 4 C-12.72867143 -1.00776214 -6.89190982 -0.92775709 0 0 Z " fill="#6068F4" transform="translate(86,72)"/>
</svg>
