<svg xmlns="http://www.w3.org/2000/svg" xmlns:xlink="http://www.w3.org/1999/xlink" width="500" zoomAndPan="magnify" viewBox="0 0 375 374.999991" height="500" preserveAspectRatio="xMidYMid meet" version="1.2"><defs><clipPath id="3da98513fb"><path d="M 24.617188 37.5 L 350.117188 37.5 L 350.117188 363 L 24.617188 363 Z M 24.617188 37.5 "/></clipPath><clipPath id="bb3bea095a"><path d="M 245.117188 37.5 L 108.617188 37.5 C 94.140625 37.5 82.367188 49.277344 82.367188 63.75 L 82.367188 336.75 C 82.367188 351.222656 94.140625 363 108.617188 363 L 245.117188 363 C 259.589844 363 271.367188 351.222656 271.367188 336.75 L 271.367188 252.96875 L 285.320312 239.015625 L 278.433594 225.640625 C 280.339844 221.917969 281.949219 217.996094 283.257812 213.9375 L 297.617188 209.328125 L 297.617188 170.167969 L 283.261719 165.570312 C 281.960938 161.515625 280.34375 157.59375 278.4375 153.867188 L 285.328125 140.484375 L 271.367188 126.53125 L 271.367188 63.75 C 271.367188 49.277344 259.589844 37.5 245.117188 37.5 Z M 257.632812 112.796875 L 244.25 119.683594 C 240.523438 117.777344 236.601562 116.160156 232.546875 114.859375 L 227.945312 100.5 L 197.867188 100.5 L 197.867188 90 L 260.867188 90 L 260.867188 116.03125 Z M 92.867188 289.5 L 92.867188 90 L 187.367188 90 L 187.367188 289.5 Z M 197.867188 165.714844 C 201.164062 164.277344 204.734375 163.5 208.367188 163.5 C 222.839844 163.5 234.617188 175.277344 234.617188 189.75 C 234.617188 204.222656 222.839844 216 208.367188 216 C 204.734375 216 201.164062 215.222656 197.867188 213.785156 Z M 197.867188 224.914062 C 201.261719 225.925781 204.792969 226.5 208.367188 226.5 C 228.632812 226.5 245.117188 210.015625 245.117188 189.75 C 245.117188 169.484375 228.632812 153 208.367188 153 C 204.792969 153 201.261719 153.570312 197.867188 154.585938 L 197.867188 143.8125 C 201.300781 143.03125 204.796875 142.5 208.367188 142.5 C 234.417969 142.5 255.617188 163.699219 255.617188 189.75 C 255.617188 215.800781 234.417969 237 208.367188 237 C 204.800781 237 201.300781 236.476562 197.867188 235.691406 Z M 108.617188 48 L 245.117188 48 C 253.800781 48 260.867188 55.066406 260.867188 63.75 L 260.867188 79.5 L 92.867188 79.5 L 92.867188 63.75 C 92.867188 55.066406 99.933594 48 108.617188 48 Z M 245.117188 352.5 L 108.617188 352.5 C 99.933594 352.5 92.867188 345.433594 92.867188 336.75 L 92.867188 300 L 260.867188 300 L 260.867188 336.75 C 260.867188 345.433594 253.800781 352.5 245.117188 352.5 Z M 260.867188 289.5 L 197.867188 289.5 L 197.867188 279 L 227.945312 279 L 232.542969 264.644531 C 236.597656 263.34375 240.515625 261.726562 244.246094 259.820312 L 257.628906 266.710938 L 260.867188 263.46875 Z M 267.929688 156.476562 C 270.480469 161.039062 272.523438 165.976562 273.980469 171.15625 L 274.746094 173.867188 L 287.117188 177.828125 L 287.117188 201.667969 L 274.746094 205.632812 L 273.980469 208.34375 C 272.515625 213.53125 270.480469 218.46875 267.929688 223.019531 L 266.546875 225.480469 L 272.480469 237.003906 L 255.621094 253.863281 L 244.097656 247.9375 L 241.640625 249.3125 C 237.078125 251.863281 232.136719 253.90625 226.960938 255.363281 L 224.246094 256.132812 L 220.289062 268.5 L 197.867188 268.5 L 197.867188 246.507812 C 201.316406 247.144531 204.824219 247.5 208.367188 247.5 C 240.207031 247.5 266.117188 221.589844 266.117188 189.75 C 266.117188 157.910156 240.207031 132 208.367188 132 C 204.824219 132 201.316406 132.355469 197.867188 132.992188 L 197.867188 111 L 220.289062 111 L 224.253906 123.367188 L 226.96875 124.136719 C 232.144531 125.601562 237.085938 127.636719 241.644531 130.1875 L 244.101562 131.5625 L 255.628906 125.636719 L 272.484375 142.496094 L 266.558594 154.019531 Z M 103.367188 63.75 C 103.367188 60.851562 105.71875 58.5 108.617188 58.5 C 111.515625 58.5 113.867188 60.851562 113.867188 63.75 C 113.867188 66.648438 111.515625 69 108.617188 69 C 105.71875 69 103.367188 66.648438 103.367188 63.75 Z M 124.367188 63.75 C 124.367188 60.851562 126.71875 58.5 129.617188 58.5 C 132.515625 58.5 134.867188 60.851562 134.867188 63.75 C 134.867188 66.648438 132.515625 69 129.617188 69 C 126.71875 69 124.367188 66.648438 124.367188 63.75 Z M 250.367188 69 L 208.367188 69 L 208.367188 58.5 L 250.367188 58.5 Z M 192.617188 310.5 L 161.117188 310.5 C 152.433594 310.5 145.367188 317.566406 145.367188 326.25 C 145.367188 334.933594 152.433594 342 161.117188 342 L 192.617188 342 C 201.300781 342 208.367188 334.933594 208.367188 326.25 C 208.367188 317.566406 201.300781 310.5 192.617188 310.5 Z M 192.617188 331.5 L 161.117188 331.5 C 158.222656 331.5 155.867188 329.144531 155.867188 326.25 C 155.867188 323.355469 158.222656 321 161.117188 321 L 192.617188 321 C 195.507812 321 197.867188 323.355469 197.867188 326.25 C 197.867188 329.144531 195.507812 331.5 192.617188 331.5 Z M 103.367188 100.5 L 103.367188 142.5 L 176.867188 142.5 L 176.867188 100.5 Z M 166.367188 132 L 113.867188 132 L 113.867188 111 L 166.367188 111 Z M 103.367188 279 L 145.367188 279 L 145.367188 226.5 L 103.367188 226.5 Z M 113.867188 237 L 134.867188 237 L 134.867188 268.5 L 113.867188 268.5 Z M 155.867188 247.5 L 176.867188 247.5 L 176.867188 258 L 155.867188 258 Z M 155.867188 268.5 L 176.867188 268.5 L 176.867188 279 L 155.867188 279 Z M 155.867188 226.5 L 176.867188 226.5 L 176.867188 237 L 155.867188 237 Z M 103.367188 153 L 176.867188 153 L 176.867188 163.5 L 103.367188 163.5 Z M 166.367188 174 L 176.867188 174 L 176.867188 184.5 L 166.367188 184.5 Z M 155.867188 184.5 L 103.367188 184.5 L 103.367188 174 L 155.867188 174 Z M 103.367188 195 L 176.867188 195 L 176.867188 205.5 L 103.367188 205.5 Z M 66.617188 200.25 C 66.617188 197.355469 64.257812 195 61.367188 195 L 50.867188 195 C 42.183594 195 35.117188 187.933594 35.117188 179.25 C 35.117188 170.566406 42.183594 163.5 50.867188 163.5 L 56.117188 163.5 C 59.007812 163.5 61.367188 161.144531 61.367188 158.25 C 61.367188 155.355469 59.007812 153 56.117188 153 L 40.367188 153 C 31.683594 153 24.617188 145.933594 24.617188 137.25 C 24.617188 128.566406 31.683594 121.5 40.367188 121.5 L 71.867188 121.5 L 71.867188 132 L 40.367188 132 C 37.472656 132 35.117188 134.355469 35.117188 137.25 C 35.117188 140.144531 37.472656 142.5 40.367188 142.5 L 56.117188 142.5 C 64.800781 142.5 71.867188 149.566406 71.867188 158.25 C 71.867188 166.933594 64.800781 174 56.117188 174 L 50.867188 174 C 47.972656 174 45.617188 176.355469 45.617188 179.25 C 45.617188 182.144531 47.972656 184.5 50.867188 184.5 L 61.367188 184.5 C 70.050781 184.5 77.117188 191.566406 77.117188 200.25 C 77.117188 208.933594 70.050781 216 61.367188 216 L 40.367188 216 C 37.472656 216 35.117188 218.355469 35.117188 221.25 C 35.117188 224.144531 37.472656 226.5 40.367188 226.5 L 56.117188 226.5 C 64.800781 226.5 71.867188 233.566406 71.867188 242.25 C 71.867188 250.933594 64.800781 258 56.117188 258 L 50.867188 258 C 47.972656 258 45.617188 260.355469 45.617188 263.25 C 45.617188 266.144531 47.972656 268.5 50.867188 268.5 L 71.867188 268.5 L 71.867188 279 L 50.867188 279 C 42.183594 279 35.117188 271.933594 35.117188 263.25 C 35.117188 254.566406 42.183594 247.5 50.867188 247.5 L 56.117188 247.5 C 59.007812 247.5 61.367188 245.144531 61.367188 242.25 C 61.367188 239.355469 59.007812 237 56.117188 237 L 40.367188 237 C 31.683594 237 24.617188 229.933594 24.617188 221.25 C 24.617188 212.566406 31.683594 205.5 40.367188 205.5 L 61.367188 205.5 C 64.257812 205.5 66.617188 203.144531 66.617188 200.25 Z M 329.117188 132 L 281.867188 132 L 281.867188 121.5 L 329.117188 121.5 Z M 350.117188 132 L 339.617188 132 L 339.617188 121.5 L 350.117188 121.5 Z M 329.117188 153 L 292.367188 153 L 292.367188 142.5 L 329.117188 142.5 Z M 350.117188 153 L 339.617188 153 L 339.617188 142.5 L 350.117188 142.5 Z M 329.117188 258 L 281.867188 258 L 281.867188 247.5 L 329.117188 247.5 Z M 339.617188 247.5 L 350.117188 247.5 L 350.117188 258 L 339.617188 258 Z M 329.117188 237 L 292.367188 237 L 292.367188 226.5 L 329.117188 226.5 Z M 350.117188 237 L 339.617188 237 L 339.617188 226.5 L 350.117188 226.5 Z M 329.117188 174 L 308.117188 174 L 308.117188 163.5 L 329.117188 163.5 Z M 350.117188 174 L 339.617188 174 L 339.617188 163.5 L 350.117188 163.5 Z M 329.117188 195 L 308.117188 195 L 308.117188 184.5 L 329.117188 184.5 Z M 350.117188 195 L 339.617188 195 L 339.617188 184.5 L 350.117188 184.5 Z M 329.117188 216 L 308.117188 216 L 308.117188 205.5 L 329.117188 205.5 Z M 350.117188 216 L 339.617188 216 L 339.617188 205.5 L 350.117188 205.5 Z M 350.117188 216 "/></clipPath><linearGradient x1="31" gradientTransform="matrix(5.25,0,0,5.25,24.616572,37.499999)" y1="61.999997" x2="31" gradientUnits="userSpaceOnUse" y2="-0.000000297619" id="235852432b"><stop style="stop-color:#9f2fff;stop-opacity:1;" offset="0"/><stop style="stop-color:#9f2fff;stop-opacity:1;" offset="0.00390625"/><stop style="stop-color:#9e30ff;stop-opacity:1;" offset="0.0078125"/><stop style="stop-color:#9d30fe;stop-opacity:1;" offset="0.0117188"/><stop style="stop-color:#9d31fe;stop-opacity:1;" offset="0.015625"/><stop style="stop-color:#9c31fe;stop-opacity:1;" offset="0.0195312"/><stop style="stop-color:#9c32fe;stop-opacity:1;" offset="0.0234375"/><stop style="stop-color:#9b32fe;stop-opacity:1;" offset="0.0273438"/><stop style="stop-color:#9a33fe;stop-opacity:1;" offset="0.03125"/><stop style="stop-color:#9a33fd;stop-opacity:1;" offset="0.0351562"/><stop style="stop-color:#9934fd;stop-opacity:1;" offset="0.0390625"/><stop style="stop-color:#9935fd;stop-opacity:1;" offset="0.0429687"/><stop style="stop-color:#9835fd;stop-opacity:1;" offset="0.046875"/><stop style="stop-color:#9836fd;stop-opacity:1;" offset="0.0507812"/><stop style="stop-color:#9736fd;stop-opacity:1;" offset="0.0546875"/><stop style="stop-color:#9637fc;stop-opacity:1;" offset="0.0585937"/><stop style="stop-color:#9637fc;stop-opacity:1;" offset="0.0625"/><stop style="stop-color:#9538fc;stop-opacity:1;" offset="0.0664062"/><stop style="stop-color:#9538fc;stop-opacity:1;" offset="0.0703125"/><stop style="stop-color:#9439fc;stop-opacity:1;" offset="0.0742188"/><stop style="stop-color:#9439fc;stop-opacity:1;" offset="0.078125"/><stop style="stop-color:#933afb;stop-opacity:1;" offset="0.0820312"/><stop style="stop-color:#923afb;stop-opacity:1;" offset="0.0859375"/><stop style="stop-color:#923bfb;stop-opacity:1;" offset="0.0898438"/><stop style="stop-color:#913bfb;stop-opacity:1;" offset="0.09375"/><stop style="stop-color:#913cfb;stop-opacity:1;" offset="0.0976562"/><stop style="stop-color:#903cfb;stop-opacity:1;" offset="0.101562"/><stop style="stop-color:#8f3dfa;stop-opacity:1;" offset="0.105469"/><stop style="stop-color:#8f3dfa;stop-opacity:1;" offset="0.109375"/><stop style="stop-color:#8e3efa;stop-opacity:1;" offset="0.113281"/><stop style="stop-color:#8e3efa;stop-opacity:1;" offset="0.117188"/><stop style="stop-color:#8d3ffa;stop-opacity:1;" offset="0.121094"/><stop style="stop-color:#8d3ff9;stop-opacity:1;" offset="0.125"/><stop style="stop-color:#8c40f9;stop-opacity:1;" offset="0.128906"/><stop style="stop-color:#8b40f9;stop-opacity:1;" offset="0.132812"/><stop style="stop-color:#8b41f9;stop-opacity:1;" offset="0.136719"/><stop style="stop-color:#8a41f9;stop-opacity:1;" offset="0.140625"/><stop style="stop-color:#8a42f9;stop-opacity:1;" offset="0.144531"/><stop style="stop-color:#8942f8;stop-opacity:1;" offset="0.148438"/><stop style="stop-color:#8943f8;stop-opacity:1;" offset="0.152344"/><stop style="stop-color:#8843f8;stop-opacity:1;" offset="0.15625"/><stop style="stop-color:#8744f8;stop-opacity:1;" offset="0.160156"/><stop style="stop-color:#8744f8;stop-opacity:1;" offset="0.164062"/><stop style="stop-color:#8645f8;stop-opacity:1;" offset="0.167969"/><stop style="stop-color:#8645f7;stop-opacity:1;" offset="0.171875"/><stop style="stop-color:#8546f7;stop-opacity:1;" offset="0.175781"/><stop style="stop-color:#8446f7;stop-opacity:1;" offset="0.179688"/><stop style="stop-color:#8447f7;stop-opacity:1;" offset="0.183594"/><stop style="stop-color:#8347f7;stop-opacity:1;" offset="0.1875"/><stop style="stop-color:#8348f7;stop-opacity:1;" offset="0.191406"/><stop style="stop-color:#8248f6;stop-opacity:1;" offset="0.195312"/><stop style="stop-color:#8249f6;stop-opacity:1;" offset="0.199219"/><stop style="stop-color:#8149f6;stop-opacity:1;" offset="0.203125"/><stop style="stop-color:#804af6;stop-opacity:1;" offset="0.207031"/><stop style="stop-color:#804af6;stop-opacity:1;" offset="0.210938"/><stop style="stop-color:#7f4bf6;stop-opacity:1;" offset="0.214844"/><stop style="stop-color:#7f4bf5;stop-opacity:1;" offset="0.21875"/><stop style="stop-color:#7e4cf5;stop-opacity:1;" offset="0.222656"/><stop style="stop-color:#7e4cf5;stop-opacity:1;" offset="0.226562"/><stop style="stop-color:#7d4df5;stop-opacity:1;" offset="0.230469"/><stop style="stop-color:#7c4df5;stop-opacity:1;" offset="0.234375"/><stop style="stop-color:#7c4ef4;stop-opacity:1;" offset="0.238281"/><stop style="stop-color:#7b4ef4;stop-opacity:1;" offset="0.242188"/><stop style="stop-color:#7b4ff4;stop-opacity:1;" offset="0.246094"/><stop style="stop-color:#7a4ff4;stop-opacity:1;" offset="0.25"/><stop style="stop-color:#7a50f4;stop-opacity:1;" offset="0.253906"/><stop style="stop-color:#7950f4;stop-opacity:1;" offset="0.257812"/><stop style="stop-color:#7851f3;stop-opacity:1;" offset="0.261719"/><stop style="stop-color:#7851f3;stop-opacity:1;" offset="0.265625"/><stop style="stop-color:#7752f3;stop-opacity:1;" offset="0.269531"/><stop style="stop-color:#7752f3;stop-opacity:1;" offset="0.273438"/><stop style="stop-color:#7653f3;stop-opacity:1;" offset="0.277344"/><stop style="stop-color:#7553f3;stop-opacity:1;" offset="0.28125"/><stop style="stop-color:#7554f2;stop-opacity:1;" offset="0.285156"/><stop style="stop-color:#7455f2;stop-opacity:1;" offset="0.289062"/><stop style="stop-color:#7455f2;stop-opacity:1;" offset="0.292969"/><stop style="stop-color:#7356f2;stop-opacity:1;" offset="0.296875"/><stop style="stop-color:#7356f2;stop-opacity:1;" offset="0.300781"/><stop style="stop-color:#7257f2;stop-opacity:1;" offset="0.304688"/><stop style="stop-color:#7157f1;stop-opacity:1;" offset="0.308594"/><stop style="stop-color:#7158f1;stop-opacity:1;" offset="0.3125"/><stop style="stop-color:#7058f1;stop-opacity:1;" offset="0.316406"/><stop style="stop-color:#7059f1;stop-opacity:1;" offset="0.320312"/><stop style="stop-color:#6f59f1;stop-opacity:1;" offset="0.324219"/><stop style="stop-color:#6f5af1;stop-opacity:1;" offset="0.328125"/><stop style="stop-color:#6e5af0;stop-opacity:1;" offset="0.332031"/><stop style="stop-color:#6d5bf0;stop-opacity:1;" offset="0.335938"/><stop style="stop-color:#6d5bf0;stop-opacity:1;" offset="0.339844"/><stop style="stop-color:#6c5cf0;stop-opacity:1;" offset="0.34375"/><stop style="stop-color:#6c5cf0;stop-opacity:1;" offset="0.347656"/><stop style="stop-color:#6b5def;stop-opacity:1;" offset="0.351562"/><stop style="stop-color:#6a5def;stop-opacity:1;" offset="0.355469"/><stop style="stop-color:#6a5eef;stop-opacity:1;" offset="0.359375"/><stop style="stop-color:#695eef;stop-opacity:1;" offset="0.363281"/><stop style="stop-color:#695fef;stop-opacity:1;" offset="0.367188"/><stop style="stop-color:#685fef;stop-opacity:1;" offset="0.371094"/><stop style="stop-color:#6860ee;stop-opacity:1;" offset="0.375"/><stop style="stop-color:#6760ee;stop-opacity:1;" offset="0.378906"/><stop style="stop-color:#6661ee;stop-opacity:1;" offset="0.382812"/><stop style="stop-color:#6661ee;stop-opacity:1;" offset="0.386719"/><stop style="stop-color:#6562ee;stop-opacity:1;" offset="0.390625"/><stop style="stop-color:#6562ee;stop-opacity:1;" offset="0.394531"/><stop style="stop-color:#6463ed;stop-opacity:1;" offset="0.398438"/><stop style="stop-color:#6463ed;stop-opacity:1;" offset="0.402344"/><stop style="stop-color:#6364ed;stop-opacity:1;" offset="0.40625"/><stop style="stop-color:#6264ed;stop-opacity:1;" offset="0.410156"/><stop style="stop-color:#6265ed;stop-opacity:1;" offset="0.414062"/><stop style="stop-color:#6165ed;stop-opacity:1;" offset="0.417969"/><stop style="stop-color:#6166ec;stop-opacity:1;" offset="0.421875"/><stop style="stop-color:#6066ec;stop-opacity:1;" offset="0.425781"/><stop style="stop-color:#5f67ec;stop-opacity:1;" offset="0.429688"/><stop style="stop-color:#5f67ec;stop-opacity:1;" offset="0.433594"/><stop style="stop-color:#5e68ec;stop-opacity:1;" offset="0.4375"/><stop style="stop-color:#5e68ec;stop-opacity:1;" offset="0.441406"/><stop style="stop-color:#5d69eb;stop-opacity:1;" offset="0.445312"/><stop style="stop-color:#5d69eb;stop-opacity:1;" offset="0.449219"/><stop style="stop-color:#5c6aeb;stop-opacity:1;" offset="0.453125"/><stop style="stop-color:#5b6aeb;stop-opacity:1;" offset="0.457031"/><stop style="stop-color:#5b6beb;stop-opacity:1;" offset="0.460938"/><stop style="stop-color:#5a6bea;stop-opacity:1;" offset="0.464844"/><stop style="stop-color:#5a6cea;stop-opacity:1;" offset="0.46875"/><stop style="stop-color:#596cea;stop-opacity:1;" offset="0.472656"/><stop style="stop-color:#596dea;stop-opacity:1;" offset="0.476562"/><stop style="stop-color:#586dea;stop-opacity:1;" offset="0.480469"/><stop style="stop-color:#576eea;stop-opacity:1;" offset="0.484375"/><stop style="stop-color:#576ee9;stop-opacity:1;" offset="0.488281"/><stop style="stop-color:#566fe9;stop-opacity:1;" offset="0.492188"/><stop style="stop-color:#566fe9;stop-opacity:1;" offset="0.496094"/><stop style="stop-color:#5570e9;stop-opacity:1;" offset="0.5"/><stop style="stop-color:#5470e9;stop-opacity:1;" offset="0.503906"/><stop style="stop-color:#5471e9;stop-opacity:1;" offset="0.507812"/><stop style="stop-color:#5371e8;stop-opacity:1;" offset="0.511719"/><stop style="stop-color:#5372e8;stop-opacity:1;" offset="0.515625"/><stop style="stop-color:#5272e8;stop-opacity:1;" offset="0.519531"/><stop style="stop-color:#5273e8;stop-opacity:1;" offset="0.523438"/><stop style="stop-color:#5173e8;stop-opacity:1;" offset="0.527344"/><stop style="stop-color:#5074e8;stop-opacity:1;" offset="0.53125"/><stop style="stop-color:#5075e7;stop-opacity:1;" offset="0.535156"/><stop style="stop-color:#4f75e7;stop-opacity:1;" offset="0.539062"/><stop style="stop-color:#4f76e7;stop-opacity:1;" offset="0.542969"/><stop style="stop-color:#4e76e7;stop-opacity:1;" offset="0.546875"/><stop style="stop-color:#4e77e7;stop-opacity:1;" offset="0.550781"/><stop style="stop-color:#4d77e7;stop-opacity:1;" offset="0.554688"/><stop style="stop-color:#4c78e6;stop-opacity:1;" offset="0.558594"/><stop style="stop-color:#4c78e6;stop-opacity:1;" offset="0.5625"/><stop style="stop-color:#4b79e6;stop-opacity:1;" offset="0.566406"/><stop style="stop-color:#4b79e6;stop-opacity:1;" offset="0.570312"/><stop style="stop-color:#4a7ae6;stop-opacity:1;" offset="0.574219"/><stop style="stop-color:#497ae5;stop-opacity:1;" offset="0.578125"/><stop style="stop-color:#497be5;stop-opacity:1;" offset="0.582031"/><stop style="stop-color:#487be5;stop-opacity:1;" offset="0.585938"/><stop style="stop-color:#487ce5;stop-opacity:1;" offset="0.589844"/><stop style="stop-color:#477ce5;stop-opacity:1;" offset="0.59375"/><stop style="stop-color:#477de5;stop-opacity:1;" offset="0.597656"/><stop style="stop-color:#467de4;stop-opacity:1;" offset="0.601562"/><stop style="stop-color:#457ee4;stop-opacity:1;" offset="0.605469"/><stop style="stop-color:#457ee4;stop-opacity:1;" offset="0.609375"/><stop style="stop-color:#447fe4;stop-opacity:1;" offset="0.613281"/><stop style="stop-color:#447fe4;stop-opacity:1;" offset="0.617188"/><stop style="stop-color:#4380e4;stop-opacity:1;" offset="0.621094"/><stop style="stop-color:#4380e3;stop-opacity:1;" offset="0.625"/><stop style="stop-color:#4281e3;stop-opacity:1;" offset="0.628906"/><stop style="stop-color:#4181e3;stop-opacity:1;" offset="0.632812"/><stop style="stop-color:#4182e3;stop-opacity:1;" offset="0.636719"/><stop style="stop-color:#4082e3;stop-opacity:1;" offset="0.640625"/><stop style="stop-color:#4083e3;stop-opacity:1;" offset="0.644531"/><stop style="stop-color:#3f83e2;stop-opacity:1;" offset="0.648438"/><stop style="stop-color:#3e84e2;stop-opacity:1;" offset="0.652344"/><stop style="stop-color:#3e84e2;stop-opacity:1;" offset="0.65625"/><stop style="stop-color:#3d85e2;stop-opacity:1;" offset="0.660156"/><stop style="stop-color:#3d85e2;stop-opacity:1;" offset="0.664062"/><stop style="stop-color:#3c86e2;stop-opacity:1;" offset="0.667969"/><stop style="stop-color:#3c86e1;stop-opacity:1;" offset="0.671875"/><stop style="stop-color:#3b87e1;stop-opacity:1;" offset="0.675781"/><stop style="stop-color:#3a87e1;stop-opacity:1;" offset="0.679688"/><stop style="stop-color:#3a88e1;stop-opacity:1;" offset="0.683594"/><stop style="stop-color:#3988e1;stop-opacity:1;" offset="0.6875"/><stop style="stop-color:#3989e0;stop-opacity:1;" offset="0.691406"/><stop style="stop-color:#3889e0;stop-opacity:1;" offset="0.695312"/><stop style="stop-color:#388ae0;stop-opacity:1;" offset="0.699219"/><stop style="stop-color:#378ae0;stop-opacity:1;" offset="0.703125"/><stop style="stop-color:#368be0;stop-opacity:1;" offset="0.707031"/><stop style="stop-color:#368be0;stop-opacity:1;" offset="0.710938"/><stop style="stop-color:#358cdf;stop-opacity:1;" offset="0.714844"/><stop style="stop-color:#358cdf;stop-opacity:1;" offset="0.71875"/><stop style="stop-color:#348ddf;stop-opacity:1;" offset="0.722656"/><stop style="stop-color:#338ddf;stop-opacity:1;" offset="0.726562"/><stop style="stop-color:#338edf;stop-opacity:1;" offset="0.730469"/><stop style="stop-color:#328edf;stop-opacity:1;" offset="0.734375"/><stop style="stop-color:#328fde;stop-opacity:1;" offset="0.738281"/><stop style="stop-color:#318fde;stop-opacity:1;" offset="0.742188"/><stop style="stop-color:#3190de;stop-opacity:1;" offset="0.746094"/><stop style="stop-color:#3090de;stop-opacity:1;" offset="0.75"/><stop style="stop-color:#2f91de;stop-opacity:1;" offset="0.753906"/><stop style="stop-color:#2f91de;stop-opacity:1;" offset="0.757812"/><stop style="stop-color:#2e92dd;stop-opacity:1;" offset="0.761719"/><stop style="stop-color:#2e92dd;stop-opacity:1;" offset="0.765625"/><stop style="stop-color:#2d93dd;stop-opacity:1;" offset="0.769531"/><stop style="stop-color:#2d94dd;stop-opacity:1;" offset="0.773438"/><stop style="stop-color:#2c94dd;stop-opacity:1;" offset="0.777344"/><stop style="stop-color:#2b95dd;stop-opacity:1;" offset="0.78125"/><stop style="stop-color:#2b95dc;stop-opacity:1;" offset="0.785156"/><stop style="stop-color:#2a96dc;stop-opacity:1;" offset="0.789062"/><stop style="stop-color:#2a96dc;stop-opacity:1;" offset="0.792969"/><stop style="stop-color:#2997dc;stop-opacity:1;" offset="0.796875"/><stop style="stop-color:#2897dc;stop-opacity:1;" offset="0.800781"/><stop style="stop-color:#2898db;stop-opacity:1;" offset="0.804688"/><stop style="stop-color:#2798db;stop-opacity:1;" offset="0.808594"/><stop style="stop-color:#2799db;stop-opacity:1;" offset="0.8125"/><stop style="stop-color:#2699db;stop-opacity:1;" offset="0.816406"/><stop style="stop-color:#269adb;stop-opacity:1;" offset="0.820312"/><stop style="stop-color:#259adb;stop-opacity:1;" offset="0.824219"/><stop style="stop-color:#249bda;stop-opacity:1;" offset="0.828125"/><stop style="stop-color:#249bda;stop-opacity:1;" offset="0.832031"/><stop style="stop-color:#239cda;stop-opacity:1;" offset="0.835938"/><stop style="stop-color:#239cda;stop-opacity:1;" offset="0.839844"/><stop style="stop-color:#229dda;stop-opacity:1;" offset="0.84375"/><stop style="stop-color:#229dda;stop-opacity:1;" offset="0.847656"/><stop style="stop-color:#219ed9;stop-opacity:1;" offset="0.851562"/><stop style="stop-color:#209ed9;stop-opacity:1;" offset="0.855469"/><stop style="stop-color:#209fd9;stop-opacity:1;" offset="0.859375"/><stop style="stop-color:#1f9fd9;stop-opacity:1;" offset="0.863281"/><stop style="stop-color:#1fa0d9;stop-opacity:1;" offset="0.867188"/><stop style="stop-color:#1ea0d9;stop-opacity:1;" offset="0.871094"/><stop style="stop-color:#1da1d8;stop-opacity:1;" offset="0.875"/><stop style="stop-color:#1da1d8;stop-opacity:1;" offset="0.878906"/><stop style="stop-color:#1ca2d8;stop-opacity:1;" offset="0.882812"/><stop style="stop-color:#1ca2d8;stop-opacity:1;" offset="0.886719"/><stop style="stop-color:#1ba3d8;stop-opacity:1;" offset="0.890625"/><stop style="stop-color:#1ba3d8;stop-opacity:1;" offset="0.894531"/><stop style="stop-color:#1aa4d7;stop-opacity:1;" offset="0.898438"/><stop style="stop-color:#19a4d7;stop-opacity:1;" offset="0.902344"/><stop style="stop-color:#19a5d7;stop-opacity:1;" offset="0.90625"/><stop style="stop-color:#18a5d7;stop-opacity:1;" offset="0.910156"/><stop style="stop-color:#18a6d7;stop-opacity:1;" offset="0.914062"/><stop style="stop-color:#17a6d7;stop-opacity:1;" offset="0.917969"/><stop style="stop-color:#17a7d6;stop-opacity:1;" offset="0.921875"/><stop style="stop-color:#16a7d6;stop-opacity:1;" offset="0.925781"/><stop style="stop-color:#15a8d6;stop-opacity:1;" offset="0.929688"/><stop style="stop-color:#15a8d6;stop-opacity:1;" offset="0.933594"/><stop style="stop-color:#14a9d6;stop-opacity:1;" offset="0.9375"/><stop style="stop-color:#14a9d5;stop-opacity:1;" offset="0.941406"/><stop style="stop-color:#13aad5;stop-opacity:1;" offset="0.945312"/><stop style="stop-color:#12aad5;stop-opacity:1;" offset="0.949219"/><stop style="stop-color:#12abd5;stop-opacity:1;" offset="0.953125"/><stop style="stop-color:#11abd5;stop-opacity:1;" offset="0.957031"/><stop style="stop-color:#11acd5;stop-opacity:1;" offset="0.960938"/><stop style="stop-color:#10acd4;stop-opacity:1;" offset="0.964844"/><stop style="stop-color:#10add4;stop-opacity:1;" offset="0.96875"/><stop style="stop-color:#0fadd4;stop-opacity:1;" offset="0.972656"/><stop style="stop-color:#0eaed4;stop-opacity:1;" offset="0.976562"/><stop style="stop-color:#0eaed4;stop-opacity:1;" offset="0.980469"/><stop style="stop-color:#0dafd4;stop-opacity:1;" offset="0.984375"/><stop style="stop-color:#0dafd3;stop-opacity:1;" offset="0.988281"/><stop style="stop-color:#0cb0d3;stop-opacity:1;" offset="0.992188"/><stop style="stop-color:#0cb0d3;stop-opacity:1;" offset="0.996094"/><stop style="stop-color:#0bb1d3;stop-opacity:1;" offset="1"/></linearGradient></defs><g id="2b0c174adc"><g clip-rule="nonzero" clip-path="url(#3da98513fb)"><g clip-rule="nonzero" clip-path="url(#bb3bea095a)"><path style=" stroke:none;fill-rule:nonzero;fill:url(#235852432b);" d="M 24.617188 37.5 L 24.617188 363 L 350.117188 363 L 350.117188 37.5 Z M 24.617188 37.5 "/></g></g></g></svg>