<?xml version="1.0" encoding="UTF-8"?>
<svg version="1.1" xmlns="http://www.w3.org/2000/svg" width="512" height="512">
<path d="M0 0 C1.16015625 -0.020625 2.3203125 -0.04125 3.515625 -0.0625 C19.73217371 -0.13505726 32.75086839 4.55439433 44.5859375 15.76953125 C48.87774343 20.42020833 52.98794506 25.66439224 54.52954102 31.89575195 C56.05102691 37.76921297 56.05102691 37.76921297 60.32128906 41.78613281 C63.53854953 42.96075535 66.74068683 43.85334243 70.0625 44.6875 C80.03264693 47.57668398 89.30812367 50.96998807 98.625 55.5625 C99.65262451 56.06644287 100.68024902 56.57038574 101.73901367 57.08959961 C105.82673732 59.12614552 109.8377459 61.19786659 113.73828125 63.57421875 C116.92449892 65.27644463 118.75367176 65.70769595 122.3125 65.75 C127.65232264 66.0942684 131.56128848 67.01863507 135.875 70.25 C140.41529883 75.56925149 141.59344637 80.27492668 141.36328125 87.125 C141.35620651 87.93493408 141.34913177 88.74486816 141.34184265 89.5793457 C141.3141089 92.13721641 141.25141784 94.69280406 141.1875 97.25 C141.16238963 98.99606188 141.13958128 100.74215846 141.11914062 102.48828125 C141.06435231 106.74305178 140.9782336 110.99614042 140.875 115.25 C143.185 115.25 145.495 115.25 147.875 115.25 C147.86500725 113.99545265 147.86500725 113.99545265 147.85481262 112.71556091 C147.79458233 104.81520317 147.74896515 96.91492307 147.71956348 89.01438808 C147.70393937 84.95309554 147.68276107 80.89199348 147.64868164 76.83081055 C147.61597138 72.90802716 147.59812252 68.98542646 147.59036827 65.06251717 C147.58484561 63.56945993 147.57406127 62.07641215 147.55780983 60.58343315 C147.53587952 58.48436118 147.53303944 56.3860342 147.53442383 54.28686523 C147.52443108 52.49816261 147.52443108 52.49816261 147.51423645 50.67332458 C148.01518683 45.91975189 149.38651893 41.94822159 152.59375 38.2890625 C153.1815625 37.82242188 153.769375 37.35578125 154.375 36.875 C154.9628125 36.39289062 155.550625 35.91078125 156.15625 35.4140625 C161.11894328 32.05296569 167.45026862 33.02594565 173.1875 33 C174.31607422 32.979375 175.44464844 32.95875 176.60742188 32.9375 C183.49718451 32.9050585 188.41969168 33.127908 193.73828125 37.93359375 C194.21652344 38.51238281 194.69476563 39.09117188 195.1875 39.6875 C195.67863281 40.26371094 196.16976563 40.83992188 196.67578125 41.43359375 C199.24873247 45.33073485 198.99696903 49.38672244 198.98852539 53.94628906 C198.98867142 54.61011597 198.98881744 55.27394287 198.9889679 55.95788574 C198.98827332 58.1438325 198.98050231 60.32969319 198.97265625 62.515625 C198.97079045 64.03448439 198.96936731 65.55334438 198.96836853 67.07220459 C198.9645561 71.06377839 198.9547367 75.05531562 198.94366455 79.046875 C198.93342303 83.1223908 198.92886504 87.19791253 198.92382812 91.2734375 C198.91311327 99.26564175 198.89605216 107.25781632 198.875 115.25 C201.185 115.25 203.495 115.25 205.875 115.25 C205.86611755 113.98990112 205.85723511 112.72980225 205.8480835 111.43151855 C205.76691866 99.54341562 205.70699649 87.65536907 205.66775131 75.7670517 C205.64689652 69.65545585 205.61861678 63.54408408 205.57324219 57.43261719 C205.52971016 51.53225 205.50584704 45.63209806 205.49549103 39.73158264 C205.48811294 37.48296217 205.47370525 35.23435317 205.45207977 32.98582458 C205.42294874 29.83078762 205.41904815 26.67663468 205.42089844 23.52148438 C205.40651733 22.59647125 205.39213623 21.67145813 205.37731934 20.71841431 C205.41474479 14.80210876 206.39463521 10.13927794 209.875 5.25 C216.75856284 -0.2287541 222.68068638 0.00938689 231.125 -0.0625 C232.80529297 -0.10600586 232.80529297 -0.10600586 234.51953125 -0.15039062 C241.22852214 -0.20187639 245.45823535 0.17629617 250.875 4.25 C254.37076406 8.11373923 255.99485843 10.49419662 256.02217102 15.66412354 C256.03290398 17.05619774 256.03290398 17.05619774 256.04385376 18.47639465 C256.04654266 19.49770981 256.04923157 20.51902496 256.05200195 21.57128906 C256.05857315 22.64458969 256.06514435 23.71789032 256.07191467 24.82371521 C256.09168017 28.38768579 256.10331763 31.95161417 256.11328125 35.515625 C256.11735678 36.73091637 256.1214323 37.94620773 256.12563133 39.19832611 C256.14650609 45.63075085 256.16080165 52.06315416 256.17016602 58.49560547 C256.18123243 65.14489486 256.21563139 71.79384156 256.25533772 78.4430275 C256.28146517 83.55082833 256.28985445 88.65854904 256.29344749 93.76641083 C256.29832356 96.21763111 256.30996636 98.66884757 256.32848549 101.12000275 C256.35279332 104.55065 256.35192669 107.98042608 256.3449707 111.41113281 C256.36418579 112.93096016 256.36418579 112.93096016 256.38378906 114.48149109 C256.34117124 120.24664117 255.83291288 123.73361444 251.875 128.25 C247.01630827 131.91880804 243.5176877 133.35869837 237.4855957 133.45532227 C236.38468094 133.47526749 235.28376617 133.49521271 234.14949036 133.51576233 C232.36812935 133.54083107 232.36812935 133.54083107 230.55078125 133.56640625 C229.33424362 133.58718735 228.11770599 133.60796844 226.86430359 133.62937927 C222.97209404 133.69484717 219.07981615 133.75374715 215.1875 133.8125 C212.55142518 133.85568782 209.91535731 133.8993022 207.27929688 133.94335938 C200.81127049 134.05052578 194.34317589 134.15229745 187.875 134.25 C188.44214722 135.24012085 188.44214722 135.24012085 189.02075195 136.25024414 C190.74688514 139.26879408 192.46723147 142.29060427 194.1875 145.3125 C194.78240234 146.35083984 195.37730469 147.38917969 195.99023438 148.45898438 C200.92356164 157.14053794 200.92356164 157.14053794 202.60522461 161.43481445 C203.02425049 162.36382568 203.44327637 163.29283691 203.875 164.25 C206.91792898 165.38422396 206.91792898 165.38422396 210.4375 165.4375 C222.08606392 166.58797545 231.0358677 170.59154281 238.8515625 179.50390625 C246.80545595 190.04704587 249.2331984 201.18080519 247.875 214.25 C246.22697759 222.16606271 243.14558804 228.18410584 237.875 234.25 C236.91634644 235.41640355 235.95798605 236.58304815 235 237.75 C234.29875 238.575 233.5975 239.4 232.875 240.25 C233.46667969 240.52328125 234.05835938 240.7965625 234.66796875 241.078125 C243.10754736 245.55931718 247.81621535 254.51334634 250.875 263.25 C252.24483029 268.29024162 252.91941975 273.43562826 253.55126953 278.61181641 C253.91196397 281.55123128 254.31263289 284.48395591 254.71484375 287.41796875 C254.99935602 289.54921841 255.28192627 291.68072827 255.5625 293.8125 C255.69430664 294.8113623 255.82611328 295.81022461 255.96191406 296.83935547 C256.14125488 298.28205811 256.14125488 298.28205811 256.32421875 299.75390625 C256.43080811 300.59767822 256.53739746 301.4414502 256.6472168 302.31079102 C256.95477285 306.27935191 256.875 310.26953944 256.875 314.25 C236.58 314.745 236.58 314.745 215.875 315.25 C214.72 318.83875 213.565 322.4275 212.375 326.125 C208.15310743 338.98286113 202.98322202 351.1839122 196.875 363.25 C197.49246094 363.80945313 198.10992187 364.36890625 198.74609375 364.9453125 C212.64729259 378.10596042 222.43484492 395.36650888 223.2109375 414.8515625 C223.56316791 438.33100961 218.0768063 457.26709435 201.53125 474.72265625 C184.57950176 490.76627512 165.71261322 495.81158996 142.984375 495.5234375 C122.38480038 494.88562112 105.71342637 484.40406757 91.56640625 470.109375 C86.875 464.95207852 86.875 464.95207852 86.875 462.25 C85.77027344 462.68570312 84.66554688 463.12140625 83.52734375 463.5703125 C56.65980203 473.94455963 29.26853136 479.47553675 0.453125 479.34765625 C-1.38587372 479.34553383 -1.38587372 479.34553383 -3.26202393 479.34336853 C-7.13304201 479.33782315 -11.00399974 479.32528115 -14.875 479.3125 C-17.51822832 479.30747793 -20.16145757 479.30291627 -22.8046875 479.29882812 C-29.24481185 479.28787167 -35.68490161 479.27118896 -42.125 479.25 C-42.36734375 480.4565625 -42.6096875 481.663125 -42.859375 482.90625 C-43.19733649 484.52095488 -43.53591101 486.13553152 -43.875 487.75 C-44.03226563 488.54148437 -44.18953125 489.33296875 -44.3515625 490.1484375 C-46.17526363 498.70580434 -48.81065231 505.17473834 -56.125 510.25 C-60.54752771 512.7600833 -65.16405975 512.91256297 -70.125 512.25 C-75.84706664 510.44841909 -79.89025966 507.35640539 -83.125 502.25 C-84.32667905 499.27063615 -85.11707647 496.24316862 -85.875 493.125 C-86.08253906 492.32707031 -86.29007813 491.52914063 -86.50390625 490.70703125 C-87.05994998 488.55819131 -87.59640493 486.40572585 -88.125 484.25 C-88.45785824 482.91654798 -88.79105145 481.58317938 -89.125 480.25 C-90.23423828 480.2406543 -91.34347656 480.23130859 -92.48632812 480.22167969 C-96.63158206 480.18157898 -100.7761094 480.11576602 -104.92089844 480.04248047 C-106.7092144 480.01438666 -108.49765186 479.99311486 -110.28613281 479.97900391 C-112.86846602 479.95741249 -115.44935619 479.91068291 -118.03125 479.859375 C-118.82116333 479.85814636 -119.61107666 479.85691772 -120.42492676 479.85565186 C-127.31764011 479.67685989 -132.75658432 477.73987289 -137.5625 472.6875 C-140.46411673 468.16097791 -140.14429176 464.23596635 -139.984375 459.06640625 C-139.95289188 456.52679399 -139.93300308 453.98724063 -139.91357422 451.44750977 C-139.88808732 449.70649654 -139.84126989 447.96565034 -139.77197266 446.22583008 C-139.16071362 435.18276905 -139.16071362 435.18276905 -143.83984375 425.60375977 C-146.54474263 422.94325453 -149.47818279 420.64320417 -152.54699707 418.41860962 C-154.59969859 416.89845608 -156.40442174 415.18924385 -158.21875 413.39453125 C-158.78754883 412.84321533 -159.35634766 412.29189941 -159.94238281 411.72387695 C-167.17812619 404.57947276 -173.48108539 397.01272567 -179.515625 388.83203125 C-180.21812378 387.8879541 -180.21812378 387.8879541 -180.93481445 386.92480469 C-182.125 385.25 -182.125 385.25 -183.43359375 382.87890625 C-186.32171285 380.09750749 -190.08321332 380.00184772 -193.9375 379.375 C-213.73881937 375.64725162 -229.97772312 365.78608444 -242.1953125 349.48828125 C-251.0921844 335.98891502 -255.72423525 322.13882313 -255.5625 305.9375 C-255.55347656 304.84518066 -255.54445312 303.75286133 -255.53515625 302.62744141 C-255.1079716 282.60612757 -247.10335668 266.37016721 -233.76123047 251.75146484 C-232.125 250.25 -232.125 250.25 -229.85205078 248.79931641 C-226.09669023 246.37283369 -223.60507445 244.63747172 -222.10961914 240.31542969 C-221.51128768 236.74880311 -221.15329172 233.23062154 -220.875 229.625 C-220.60080295 227.03165508 -220.31817219 224.43918875 -220.02734375 221.84765625 C-219.88796387 220.56777832 -219.74858398 219.28790039 -219.60498047 217.96923828 C-218.90848021 212.57224695 -217.75428538 207.33807043 -216.4375 202.0625 C-216.22254883 201.19093262 -216.00759766 200.31936523 -215.78613281 199.42138672 C-214.31387098 193.62774196 -214.31387098 193.62774196 -213.125 191.25 C-213.99382812 191.00507813 -214.86265625 190.76015625 -215.7578125 190.5078125 C-230.51736055 184.99438504 -242.66549328 170.15360533 -249.08886719 156.1484375 C-256.81517075 137.77236417 -258.47809495 116.08958646 -251.125 97.25 C-243.67204528 79.29339924 -230.80069435 64.66899186 -213.125 56.25 C-193.23100668 48.29037474 -171.14737684 47.01060714 -151.125 55.25 C-143.17672277 58.77264472 -136.76095868 63.70229123 -130.125 69.25 C-128.79850008 70.25904695 -127.46745115 71.26227398 -126.125 72.25 C-125.29742187 71.65574219 -124.46984375 71.06148438 -123.6171875 70.44921875 C-104.74915013 57.21564972 -82.61140547 46.35622936 -60.03125 41.31640625 C-56.97975064 40.54205227 -56.97975064 40.54205227 -55.77734375 38 C-55.54144531 37.0925 -55.30554688 36.185 -55.0625 35.25 C-51.2399022 22.94701716 -43.8795046 13.23885577 -32.5625 6.875 C-21.64387409 1.36993861 -12.14120282 0.05290284 0 0 Z M-31.5 28.5625 C-39.22113116 37.92144686 -40.84775278 46.2608069 -40.125 58.25 C-38.89131353 66.6824504 -33.33893631 72.81936049 -28.125 79.25 C-27.31289062 80.25716064 -27.31289062 80.25716064 -26.484375 81.28466797 C-23.153822 85.41129065 -19.80968694 89.52621039 -16.43066406 93.61328125 C-15.125 95.25 -15.125 95.25 -13.4921875 97.71875 C-12.81542969 98.47671875 -12.81542969 98.47671875 -12.125 99.25 C-10.805 99.25 -9.485 99.25 -8.125 99.25 C-6.69809753 89.0935383 -6.69809753 89.0935383 -9.953125 80.03125 C-12.29518533 78.58860166 -12.29518533 78.58860166 -14.796875 77.42578125 C-19.599126 75.00048335 -21.58530315 70.66349174 -23.4375 65.8125 C-25.03016201 57.55961502 -24.07589411 51.66591774 -20.125 44.25 C-17.625 41.3125 -17.625 41.3125 -15.125 39.25 C-14.485625 38.693125 -13.84625 38.13625 -13.1875 37.5625 C-7.27190587 33.79803101 -0.94703076 33.483586 5.875 34.25 C13.25497192 36.35368999 17.66624122 40.18227947 22.125 46.375 C25.45561238 52.641989 25.54294516 59.73272339 23.8125 66.5 C20.90926712 74.77618423 16.45799645 77.91685917 8.875 82.25 C8.875 87.86 8.875 93.47 8.875 99.25 C14.55855341 98.11328932 15.81438201 96.44425712 19 92.0625 C19.96159519 90.78467108 20.92385457 89.50734174 21.88671875 88.23046875 C22.3770459 87.57224121 22.86737305 86.91401367 23.37255859 86.23583984 C24.84522296 84.28935757 26.35801378 82.38463187 27.89453125 80.48828125 C37.15248203 69.05207915 42.11120989 60.34568977 40.875 45.25 C38.54863627 35.74514246 32.90710663 28.07022859 24.9453125 22.5 C8.76856062 12.73290453 -18.42720321 14.54730196 -31.5 28.5625 Z M222.875 17.25 C222.875 49.59 222.875 81.93 222.875 115.25 C228.155 115.25 233.435 115.25 238.875 115.25 C238.875 82.91 238.875 50.57 238.875 17.25 C233.595 17.25 228.315 17.25 222.875 17.25 Z M165.875 50.25 C165.875 71.7 165.875 93.15 165.875 115.25 C170.825 115.25 175.775 115.25 180.875 115.25 C180.875 93.8 180.875 72.35 180.875 50.25 C175.925 50.25 170.975 50.25 165.875 50.25 Z M-5.5625 52.875 C-7.62291771 56.00683492 -7.8017545 57.56544773 -7.125 61.25 C-5.20833333 64.33333333 -5.20833333 64.33333333 -2.125 66.25 C1.72710127 66.31641554 3.87348005 66.12229157 6.8125 63.5625 C8.21317538 60.51397123 8.3592732 58.57073048 7.875 55.25 C6.43838689 52.72993156 6.43838689 52.72993156 3.875 51.25 C-0.09987617 50.68216055 -2.18989221 50.62659481 -5.5625 52.875 Z M-103.5625 78.5 C-104.2539209 78.89985107 -104.9453418 79.29970215 -105.65771484 79.71166992 C-109.72548118 82.15425182 -112.91054598 84.7568361 -116.125 88.25 C-115.79886719 88.91644531 -115.47273438 89.58289063 -115.13671875 90.26953125 C-105.43441731 110.73308739 -104.75219063 131.53365118 -112.3125 152.9375 C-115.05537726 159.65424461 -118.82150043 165.4346922 -123.125 171.25 C-123.59550781 171.90613281 -124.06601563 172.56226563 -124.55078125 173.23828125 C-135.48874481 187.27372122 -153.55386831 194.9454682 -170.64453125 197.84765625 C-179.15668225 198.83166473 -187.65419066 198.39858432 -196.125 197.25 C-198.42247736 202.98712918 -200.02700913 208.57290397 -201.25 214.625 C-201.50765137 215.87083862 -201.50765137 215.87083862 -201.77050781 217.1418457 C-202.91822668 222.8353113 -203.74457775 228.44856065 -204.125 234.25 C-203.08279297 234.0334375 -203.08279297 234.0334375 -202.01953125 233.8125 C-177.99130261 229.42711987 -156.47176786 232.31674179 -136.24609375 246.23046875 C-120.36319378 258.37906858 -110.90737574 275.21146471 -107.51171875 294.78515625 C-105.18136928 315.66414598 -109.93280396 335.6751896 -123.125 352.25 C-123.70765625 353.00796875 -124.2903125 353.7659375 -124.890625 354.546875 C-135.00303762 366.86872231 -149.18314909 373.59598086 -164.125 378.25 C-161.18883401 383.89647306 -157.7013072 388.22654851 -153.3125 392.8125 C-152.72146484 393.44607422 -152.13042969 394.07964844 -151.52148438 394.73242188 C-147.6103303 398.87389472 -143.50586565 402.60956234 -139.125 406.25 C-138.7031543 405.73228027 -138.28130859 405.21456055 -137.84667969 404.68115234 C-132.04020006 397.55501826 -132.04020006 397.55501826 -126.66616249 396.99273109 C-125.27857011 396.98770356 -125.27857011 396.98770356 -123.86294556 396.98257446 C-122.26480766 396.96977951 -122.26480766 396.96977951 -120.63438416 396.95672607 C-119.47064774 396.95763245 -118.30691132 396.95853882 -117.10791016 396.95947266 C-115.87826035 396.95275543 -114.64861053 396.94603821 -113.38169861 396.93911743 C-110.01172983 396.92337267 -106.64200749 396.91676231 -103.27201891 396.91548586 C-101.16533765 396.91406336 -99.05868215 396.9097919 -96.95200729 396.90449142 C-89.59884758 396.88599288 -82.24576034 396.87782057 -74.89257812 396.87939453 C-68.04422552 396.88059584 -61.19618814 396.8594954 -54.34791529 396.8279072 C-48.46327346 396.80173356 -42.57873451 396.79102769 -36.69403493 396.79230535 C-33.1815777 396.79281468 -29.66940062 396.78714817 -26.1570015 396.76594925 C-22.23816932 396.74294266 -18.3197676 396.7520945 -14.40087891 396.76416016 C-13.24119095 396.75292114 -12.08150299 396.74168213 -10.88667297 396.73010254 C-4.65683436 396.77889694 -0.8426612 397.03003288 3.875 401.25 C7.28021062 405.12489485 7.99594763 408.38127899 8.08032227 413.45581055 C8.10026749 414.51668381 8.12021271 415.57755707 8.14076233 416.670578 C8.16583107 418.38631767 8.16583107 418.38631767 8.19140625 420.13671875 C8.21218735 421.30886429 8.23296844 422.48100983 8.25437927 423.68867493 C8.31983818 427.43822286 8.37874296 431.18784163 8.4375 434.9375 C8.48068868 437.47722091 8.52430308 440.01693462 8.56835938 442.55664062 C8.67551586 448.78768522 8.7772892 455.01880051 8.875 461.25 C10.44024401 461.2631122 12.00552066 461.27235435 13.57080078 461.2800293 C14.4424588 461.28560349 15.31411682 461.29117767 16.21218872 461.29692078 C20.4414212 461.22239846 24.57008694 460.6793859 28.75 460.0625 C29.65202148 459.93012939 30.55404297 459.79775879 31.48339844 459.66137695 C44.46981834 457.64877568 57.10433756 454.34861104 69.5625 450.1875 C70.28791992 449.95442139 71.01333984 449.72134277 71.76074219 449.48120117 C75.42589172 448.26468331 75.42589172 448.26468331 77.921875 445.4921875 C77.85598986 442.34068155 77.17197692 439.50271701 76.4375 436.4375 C72.31508228 417.48087048 75.34574317 397.64825374 85.83203125 381.17578125 C87.76891799 378.46117709 89.78336135 375.84651695 91.875 373.25 C92.35582031 372.60546875 92.83664062 371.9609375 93.33203125 371.296875 C104.43965568 357.0842374 123.45401349 349.39238669 140.875 347.25 C154.19826858 346.46271595 166.45660771 348.23488004 178.875 353.25 C179.865 353.25 180.855 353.25 181.875 353.25 C186.49049466 343.90618748 190.97866968 334.59311992 194.4375 324.75 C194.68838379 324.0391626 194.93926758 323.3283252 195.19775391 322.59594727 C196.18715093 319.68768742 196.875 317.34365523 196.875 314.25 C176.58 313.755 176.58 313.755 155.875 313.25 C156.64426387 306.89844465 157.42148202 300.54888653 158.21875 294.20092773 C158.48706046 292.04557563 158.75082163 289.88965174 159.00976562 287.7331543 C159.38488894 284.61602383 159.77685822 281.50138335 160.171875 278.38671875 C160.28247253 277.43729904 160.39307007 276.48787933 160.50701904 275.50968933 C162.42907365 260.75010957 168.16848565 249.49042122 179.875 240.25 C179.545 239.26 179.215 238.27 178.875 237.25 C178.215 237.25 177.555 237.25 176.875 237.25 C176.60558594 236.67507812 176.33617187 236.10015625 176.05859375 235.5078125 C174.85265936 233.20738319 173.46098372 231.2260895 171.9375 229.125 C165.30308569 219.13282588 164.42255648 208.13411288 166.34375 196.3828125 C168.96862766 186.35203001 175.78447142 177.0532941 184.58984375 171.5546875 C185.72099609 170.90886719 185.72099609 170.90886719 186.875 170.25 C182.84019125 161.77464755 178.6136526 153.52196516 173.625 145.5625 C173.21330566 144.90443359 172.80161133 144.24636719 172.37744141 143.56835938 C171.23405169 141.77339035 170.09380939 139.99480929 168.875 138.25 C168.02983826 136.97579193 168.02983826 136.97579193 167.16760254 135.67584229 C165.09619367 133.03076237 165.09619367 133.03076237 162.13201904 132.63768005 C161.08137268 132.64308304 160.03072632 132.64848602 158.94824219 132.65405273 C157.75309998 132.6473204 156.55795776 132.64058807 155.32659912 132.63365173 C153.39376068 132.65837303 153.39376068 132.65837303 151.421875 132.68359375 C150.07911311 132.68063139 148.73635475 132.67489637 147.39361572 132.66651917 C143.13718421 132.64578723 138.88138938 132.66541445 134.625 132.6875 C129.70356235 132.70867167 124.78279081 132.71300975 119.86136627 132.68699837 C117.90059643 132.68366385 115.93983473 132.70526569 113.97918701 132.72740173 C107.17914729 132.70724419 101.37000075 132.61383422 95.875 128.25 C91.13947463 123.25458398 91.32758415 118.5103842 91.44921875 111.99609375 C91.45250687 111.01761978 91.45579498 110.03914581 91.45918274 109.03102112 C91.47488483 105.91605899 91.51892285 102.80218315 91.5625 99.6875 C91.5739962 97.58920148 91.58377992 95.49089283 91.59179688 93.39257812 C91.60522174 91.38540571 91.62014493 89.37824264 91.63671875 87.37109375 C91.64410568 86.43140244 91.65149261 85.49171112 91.65910339 84.52354431 C91.72037273 80.31716066 91.81013337 76.34922739 92.875 72.25 C75.96602754 63.5159362 75.96602754 63.5159362 57.875 59.25 C57.45541016 60.68279297 57.45541016 60.68279297 57.02734375 62.14453125 C52.64969192 76.51997007 44.88164413 86.7392401 35.27734375 98.13671875 C34.71297607 98.81959961 34.1486084 99.50248047 33.56713867 100.20605469 C32.43820788 101.56969753 31.29233593 102.91948893 30.13012695 104.25488281 C26.15084143 109.06945821 25.06637479 112.4327394 25.1875 118.625 C25.15420917 120.12000166 25.11257878 121.61484151 25.0625 123.109375 C25.03929687 123.82158203 25.01609375 124.53378906 24.9921875 125.26757812 C24.59267147 132.02605756 22.37266058 137.89545128 17.65234375 142.77734375 C11.47338491 147.8970525 4.99652623 148.97760492 -2.90625 148.69140625 C-9.91185463 147.7306862 -15.17915389 144.88142144 -19.625 139.375 C-22.90462745 134.81784325 -24.32399481 129.81558951 -24.046875 124.2265625 C-23.51165714 113.27721125 -26.10903372 107.55515206 -33.40307617 99.44702148 C-34.68515396 98.05427707 -35.97347239 96.66725076 -37.26806641 95.28613281 C-46.91968854 84.7031025 -53.63669962 73.20320151 -57.125 59.25 C-72.02095425 59.25 -91.07854963 71.24026686 -103.5625 78.5 Z M-224.125 86.25 C-235.06881768 99.31625505 -239.27318432 114.45317449 -238.125 131.25 C-235.92046133 147.02247212 -227.55818727 160.71084381 -215.1875 170.5625 C-201.12176036 180.40295817 -185.7816669 183.26326785 -168.9453125 180.78125 C-157.09661113 177.8963488 -147.62062879 171.85239612 -139.125 163.25 C-138.56167969 162.70859375 -137.99835938 162.1671875 -137.41796875 161.609375 C-127.05145426 150.77787173 -123.74254306 136.59515763 -123.75146484 122.12402344 C-123.9236868 115.01434764 -125.42408532 108.84130503 -128.125 102.25 C-128.45242187 101.39277344 -128.77984375 100.53554687 -129.1171875 99.65234375 C-135.30750173 85.39654712 -147.88293573 76.00639749 -161.9375 70.375 C-184.03203297 62.08611931 -208.2101291 69.35386538 -224.125 86.25 Z M107.875 83.25 C107.875 93.81 107.875 104.37 107.875 115.25 C113.155 115.25 118.435 115.25 123.875 115.25 C123.875 104.69 123.875 94.13 123.875 83.25 C118.595 83.25 113.315 83.25 107.875 83.25 Z M-7.125 116.25 C-7.80173445 123.79000114 -7.80173445 123.79000114 -5.0625 130.5 C-2.17567597 132.54943755 -2.17567597 132.54943755 1.5 132.3125 C5.25823432 131.12935216 5.98356897 130.58414419 7.875 127.25 C8.23600534 124.43170117 8.23600534 124.43170117 8.0625 121.5 C8.000625 119.7675 7.93875 118.035 7.875 116.25 C2.925 116.25 -2.025 116.25 -7.125 116.25 Z M188.6015625 190.34765625 C184.26508625 195.12562895 182.19862667 200.0137333 181.5625 206.375 C182.11897682 213.27531256 184.77738984 220.42793633 189.875 225.25 C196.46722427 229.52702536 201.90516726 231.89272845 209.875 231.25 C218.70682203 228.71085117 224.1697619 224.37954643 228.859375 216.484375 C231.35245188 210.99960586 231.4621041 205.38817176 229.875 199.625 C227.28125346 192.9637873 222.24432209 187.15864798 215.81640625 183.9375 C205.37547592 180.24010817 196.47094741 182.93287725 188.6015625 190.34765625 Z M182.48828125 260.859375 C175.2850267 271.53344711 176.29399939 284.95200525 174.875 297.25 C195.665 297.25 216.455 297.25 237.875 297.25 C236.11855269 271.9843758 236.11855269 271.9843758 222.875 253.25 C208.0215785 244.24792636 193.71828149 248.57091497 182.48828125 260.859375 Z M-185.3125 256.1875 C-192.67734625 263.2032007 -192.67734625 263.2032007 -196.125 272.25 C-185.895 272.25 -175.665 272.25 -165.125 272.25 C-170.41311916 263.64851888 -170.41311916 263.64851888 -176.5 256.0625 C-177.16773438 255.32644531 -177.83546875 254.59039062 -178.5234375 253.83203125 C-181.57866407 250.81406354 -182.64712944 253.57570472 -185.3125 256.1875 Z M-155.125 255.25 C-154.55910156 256.30960937 -153.99320312 257.36921875 -153.41015625 258.4609375 C-152.66925714 259.84895102 -151.92837247 261.23697226 -151.1875 262.625 C-150.81431641 263.32367188 -150.44113281 264.02234375 -150.05664062 264.7421875 C-147.23828125 270.0234375 -147.23828125 270.0234375 -146.125 272.25 C-142.495 272.25 -138.865 272.25 -135.125 272.25 C-139.91452279 264.93267351 -145.82155148 259.97318827 -153.125 255.25 C-153.785 255.25 -154.445 255.25 -155.125 255.25 Z M-223.125 267.0625 C-225.79016053 269.29500321 -225.79016053 269.29500321 -227.125 272.25 C-223.495 272.25 -219.865 272.25 -216.125 272.25 C-214.97621668 270.14739659 -213.83088808 268.04303461 -212.6875 265.9375 C-212.36201172 265.34259766 -212.03652344 264.74769531 -211.70117188 264.13476562 C-210.28762616 261.52626374 -209.06551367 259.07154101 -208.125 256.25 C-213.70163963 256.25 -219.4441337 263.42233838 -223.125 267.0625 Z M-236.125 289.25 C-239.05197773 299.67735816 -239.51060652 310.88158004 -236.125 321.25 C-231.175 321.25 -226.225 321.25 -221.125 321.25 C-221.20878906 320.19683594 -221.29257813 319.14367187 -221.37890625 318.05859375 C-222.09061271 308.29170365 -221.97776422 299.00941275 -221.125 289.25 C-226.075 289.25 -231.025 289.25 -236.125 289.25 Z M-203.125 289.25 C-204.83329448 295.47724061 -204.83329448 295.47724061 -205.390625 301.50390625 C-205.39320313 302.21353516 -205.39578125 302.92316406 -205.3984375 303.65429688 C-205.39070313 304.36650391 -205.38296875 305.07871094 -205.375 305.8125 C-205.38273437 306.52857422 -205.39046875 307.24464844 -205.3984375 307.98242188 C-205.39585937 308.69076172 -205.39328125 309.39910156 -205.390625 310.12890625 C-205.38836914 310.7535376 -205.38611328 311.37816895 -205.38378906 312.02172852 C-205.01844473 315.16748111 -203.99501348 318.20495281 -203.125 321.25 C-188.275 321.25 -173.425 321.25 -158.125 321.25 C-157.06762339 315.96311695 -156.9412055 311.17436161 -156.9375 305.8125 C-156.91913086 304.4193457 -156.91913086 304.4193457 -156.90039062 302.99804688 C-156.89845703 302.09248047 -156.89652344 301.18691406 -156.89453125 300.25390625 C-156.89042236 299.43736572 -156.88631348 298.6208252 -156.88208008 297.77954102 C-157.09183244 294.60253029 -157.09183244 294.60253029 -159.125 289.25 C-173.645 289.25 -188.165 289.25 -203.125 289.25 Z M-141.125 289.25 C-140.96128906 290.3121875 -140.79757813 291.374375 -140.62890625 292.46875 C-139.9098919 298.2208648 -140.01750111 303.96245098 -140.0625 309.75 C-140.06701172 310.85859375 -140.07152344 311.9671875 -140.07617188 313.109375 C-140.08786828 315.82294027 -140.10580055 318.53647744 -140.125 321.25 C-135.505 321.25 -130.885 321.25 -126.125 321.25 C-124.28004542 315.92208514 -124.28004542 315.92208514 -123.859375 310.75390625 C-123.85679687 309.94759766 -123.85421875 309.14128906 -123.8515625 308.31054688 C-123.85929687 307.48619141 -123.86703125 306.66183594 -123.875 305.8125 C-123.86726563 304.99201172 -123.85953125 304.17152344 -123.8515625 303.32617188 C-123.85414063 302.51857422 -123.85671875 301.71097656 -123.859375 300.87890625 C-123.86163086 300.15775635 -123.86388672 299.43660645 -123.86621094 298.69360352 C-124.14027441 295.43718313 -124.14027441 295.43718313 -126.125 289.25 C-131.075 289.25 -136.025 289.25 -141.125 289.25 Z M-226.125 339.25 C-222.6705198 346.1589604 -216.81088151 351.42949628 -210.125 355.25 C-209.465 355.25 -208.805 355.25 -208.125 355.25 C-209.55249981 351.45950293 -211.28736542 347.97877544 -213.25 344.4375 C-213.78882813 343.46167969 -214.32765625 342.48585938 -214.8828125 341.48046875 C-215.29273438 340.74441406 -215.70265625 340.00835937 -216.125 339.25 C-219.425 339.25 -222.725 339.25 -226.125 339.25 Z M-196.125 339.25 C-194.40961153 343.53847118 -193.08711114 345.84908319 -190.25 349.3125 C-189.23292969 350.56740234 -189.23292969 350.56740234 -188.1953125 351.84765625 C-186.2609826 354.09220887 -184.25010154 356.18684088 -182.125 358.25 C-174.83186141 354.96250208 -169.64413398 348.30448517 -166.125 341.25 C-166.125 340.59 -166.125 339.93 -166.125 339.25 C-176.025 339.25 -185.925 339.25 -196.125 339.25 Z M-146.125 339.25 C-148.765 344.53 -151.405 349.81 -154.125 355.25 C-146.12489945 352.04995978 -139.32078818 346.87870579 -135.125 339.25 C-138.755 339.25 -142.385 339.25 -146.125 339.25 Z M107.25 381.3125 C95.75703816 393.27414645 91.32541724 407.3393146 91.38452148 423.62329102 C91.85759813 438.97887014 98.44023072 452.84716716 109.6484375 463.40625 C118.61592727 470.83196082 128.30437961 475.81072771 139.875 477.25 C140.79440863 469.21995953 140.79440863 469.21995953 139.875 461.25 C137.59801855 458.73014053 135.38971323 457.48670419 132.4296875 455.8515625 C127.95270701 453.04489278 126.26211816 449.23577376 124.875 444.25 C124.1145023 439.24551684 124.01326468 434.31970507 123.875 429.25 C129.485 429.25 135.095 429.25 140.875 429.25 C138.83882907 427.02155835 138.83882907 427.02155835 135.5 425.4375 C129.76683841 422.20218889 126.91152988 417.42623371 124.875 411.25 C124.44262695 407.51782227 124.44262695 407.51782227 124.36328125 403.56640625 C124.34533005 402.86603745 124.32737885 402.16566864 124.30888367 401.44407654 C124.25522445 399.23361011 124.22103068 397.02335388 124.1875 394.8125 C124.15428743 393.30270539 124.11979419 391.79293837 124.08398438 390.28320312 C123.99714003 386.60544603 123.93670016 382.9286062 123.875 379.25 C129.155 379.25 134.435 379.25 139.875 379.25 C139.875 374.63 139.875 370.01 139.875 365.25 C127.09887913 365.25 116.33384274 372.95722485 107.25 381.3125 Z M157.875 365.25 C157.3507056 370.70007268 157.07185904 375.81667055 157.875 381.25 C159.94596456 383.68132108 161.76720685 384.69863101 164.61328125 386.1015625 C168.75694633 388.20559969 170.31403558 391.80515438 171.93359375 395.9765625 C173.56280209 401.64161058 173.5427937 407.38102205 173.875 413.25 C168.265 413.25 162.655 413.25 156.875 413.25 C158.50273273 414.33515515 160.13318114 415.41646587 161.77734375 416.4765625 C168.02076909 420.76667051 170.51748178 425.17744535 172.875 432.25 C173.02645099 434.5325699 173.12386979 436.81887706 173.19140625 439.10546875 C173.21218735 439.76710526 173.23296844 440.42874176 173.25437927 441.11042786 C173.31964727 443.21934852 173.37865344 445.32839135 173.4375 447.4375 C173.48070689 448.86915315 173.52432188 450.30079404 173.56835938 451.73242188 C173.67607185 455.23815796 173.77531308 458.74398975 173.875 462.25 C168.595 462.25 163.315 462.25 157.875 462.25 C157.875 467.2 157.875 472.15 157.875 477.25 C172.08809856 475.15983845 184.0975441 468.28175956 193.38671875 457.2734375 C202.85608822 444.40761649 207.09195067 430.20747993 205.875 414.25 C202.9538687 398.04189431 195.55755598 384.39067252 182.36328125 374.3359375 C175.28294445 369.88934917 166.41633446 364.72102847 157.875 365.25 Z M140.875 397.25 C140.44411168 402.18127739 140.11444691 405.96492753 142.6875 410.3125 C147.25263135 413.08738376 151.61507604 413.14867047 156.875 413.25 C157.22207004 407.46549928 157.14733705 403.28436469 153.875 398.25 C151.23041621 396.92770811 149.19738699 397.15322806 146.25 397.1875 C144.74566406 397.20103516 144.74566406 397.20103516 143.2109375 397.21484375 C142.05464844 397.23224609 142.05464844 397.23224609 140.875 397.25 Z M-123.125 413.25 C-123.125 429.42 -123.125 445.59 -123.125 462.25 C-107.285 462.25 -91.445 462.25 -75.125 462.25 C-73.805 468.19 -72.485 474.13 -71.125 480.25 C-69.82738292 484.93583945 -68.5307422 489.59908696 -67.125 494.25 C-66.135 494.25 -65.145 494.25 -64.125 494.25 C-63.34855186 491.5431729 -62.57885411 488.8346876 -61.8125 486.125 C-61.59916016 485.38378906 -61.38582031 484.64257812 -61.16601562 483.87890625 C-59.14425547 476.69713137 -57.69966698 469.59844593 -56.125 462.25 C-40.285 462.25 -24.445 462.25 -8.125 462.25 C-8.125 446.08 -8.125 429.91 -8.125 413.25 C-46.075 413.25 -84.025 413.25 -123.125 413.25 Z M140.875 429.25 C140.24762165 436.6343537 140.24762165 436.6343537 142.6875 443.4375 C147.3542928 446.09116649 151.6269998 445.66359021 156.875 445.25 C157.15963992 439.7469615 157.2046668 435.91153352 153.875 431.25 C149.5551393 429.09006965 145.64724049 429.05911038 140.875 429.25 Z " fill="#5172E8" transform="translate(255.125,-0.25)"/>
<path d="M0 0 C1.15371094 -0.00257813 2.30742187 -0.00515625 3.49609375 -0.0078125 C10.99787775 0.07871327 15.70849701 0.90922483 21.625 5.75 C26.02949053 11.1332662 26.18654574 17.39057986 26.2890625 24.05859375 C26.31811172 25.24232323 26.31811172 25.24232323 26.3477478 26.44996643 C26.40704824 28.94570447 26.4537285 31.44148989 26.5 33.9375 C26.53822551 35.63999296 26.57727984 37.34246752 26.6171875 39.04492188 C26.71270828 43.19646341 26.79691969 47.34809533 26.875 51.5 C27.82761719 51.7568457 28.78023437 52.01369141 29.76171875 52.27832031 C31.01597656 52.62475586 32.27023437 52.97119141 33.5625 53.328125 C34.80386719 53.6674707 36.04523438 54.00681641 37.32421875 54.35644531 C45.45243609 56.97419628 51.85325311 61.90479011 55.875 69.5 C59.55957296 78.60690552 59.69163696 87.7175382 55.8984375 96.8515625 C51.25275303 105.03681608 44.45136847 109.77702118 35.68359375 112.7734375 C32.43522411 113.61376678 29.19717509 114.04572299 25.875 114.5 C25.89856567 116.11841797 25.89856567 116.11841797 25.92260742 117.76953125 C25.97722899 121.80249459 26.0114664 125.83542573 26.03979492 129.86865234 C26.05480854 131.60861728 26.07522577 133.34854484 26.10131836 135.08837891 C26.13803107 137.6006802 26.15480069 140.1124778 26.16796875 142.625 C26.18345261 143.39303955 26.19893646 144.1610791 26.21488953 144.95239258 C26.2166489 150.69938091 25.45140023 156.48989539 21.56437683 161.03125 C15.25488331 166.67644123 8.51745342 166.84073047 0.5 166.8125 C-0.4075 166.82861328 -1.315 166.84472656 -2.25 166.86132812 C-8.97015337 166.86616973 -14.48623072 166.02184975 -20.1484375 162.09765625 C-23.51329487 158.27572288 -24.42627795 155.52447498 -24.9375 150.4375 C-25.48572527 146.11296789 -25.48572527 146.11296789 -27.78125 142.53515625 C-30.15048981 140.84836052 -32.45874006 139.66142437 -35.125 138.5 C-36.41470703 137.90251953 -36.41470703 137.90251953 -37.73046875 137.29296875 C-45.42328468 134.35495673 -52.936725 134.13685656 -61.09375 133.89453125 C-62.25229492 133.85444946 -63.41083984 133.81436768 -64.60449219 133.77307129 C-67.44451288 133.67572006 -70.28458363 133.58487387 -73.125 133.5 C-73.11833817 134.12116699 -73.11167633 134.74233398 -73.10481262 135.38232422 C-73.0382295 141.87152916 -72.9931042 148.36063639 -72.96020508 154.85009766 C-72.94515721 157.2690831 -72.92471412 159.68804143 -72.89868164 162.10693359 C-72.862123 165.59219063 -72.8452331 169.0770856 -72.83203125 172.5625 C-72.81654739 173.63677246 -72.80106354 174.71104492 -72.78511047 175.81787109 C-72.78366304 182.3363395 -72.94744991 188.81655307 -77.43562317 194.01928711 C-83.71873211 199.6909185 -90.49280069 199.84069436 -98.5 199.8125 C-99.4075 199.82861328 -100.315 199.84472656 -101.25 199.86132812 C-107.45465196 199.86579834 -113.76079523 199.47034928 -118.64941406 195.15405273 C-122.71098748 190.55578189 -124.38156152 186.22339231 -124.35205078 180.15893555 C-124.35189972 179.1182341 -124.35174866 178.07753265 -124.35159302 177.0052948 C-124.33610916 175.33784966 -124.33610916 175.33784966 -124.3203125 173.63671875 C-124.3174826 172.48959915 -124.31465271 171.34247955 -124.31173706 170.16059875 C-124.30055697 166.50279232 -124.27545595 162.84523222 -124.25 159.1875 C-124.23996741 156.70508167 -124.23084205 154.22265949 -124.22265625 151.74023438 C-124.20062471 145.66007244 -124.16716848 139.58005382 -124.125 133.5 C-125.0739917 133.37520264 -126.0229834 133.25040527 -127.00073242 133.12182617 C-128.25217041 132.95142822 -129.5036084 132.78103027 -130.79296875 132.60546875 C-132.6495813 132.35639771 -132.6495813 132.35639771 -134.54370117 132.10229492 C-148.02033195 129.83582494 -158.07657507 121.22081456 -166.125 110.5 C-173.28370891 97.99403163 -175.45727365 83.68409588 -171.9375 69.625 C-167.23899907 55.13975982 -158.76881627 44.55782427 -145.125 37.5 C-137.97434061 34.50026518 -131.14437227 33.35362881 -123.40405273 33.34228516 C-122.64231247 33.33720444 -121.8805722 33.33212372 -121.0957489 33.32688904 C-119.44633049 33.31621692 -117.79689789 33.30758445 -116.14745903 33.30076981 C-113.52670288 33.28891828 -110.90610693 33.26944685 -108.28541565 33.24765015 C-100.83543324 33.18626441 -93.38546678 33.13216365 -85.93530273 33.09863281 C-81.37117986 33.07754351 -76.80734931 33.04212442 -72.24339485 32.99787521 C-70.51450126 32.98382366 -68.78555594 32.97501761 -67.0566082 32.97182083 C-53.04912813 32.94319342 -41.60259097 31.34911244 -29.125 24.5 C-27.79441196 23.82787077 -26.46195964 23.15936419 -25.125 22.5 C-25.17140625 21.943125 -25.2178125 21.38625 -25.265625 20.8125 C-25.55213286 14.75490528 -24.73698692 10.4333229 -21.125 5.5 C-14.91071524 -0.34803988 -8.13340059 -0.2012765 0 0 Z M-7.125 17.5 C-7.125 60.73 -7.125 103.96 -7.125 148.5 C-2.175 148.5 2.775 148.5 7.875 148.5 C7.875 105.27 7.875 62.04 7.875 17.5 C2.925 17.5 -2.025 17.5 -7.125 17.5 Z M-34.12890625 46.4296875 C-42.79454914 49.52536697 -51.00600399 49.831119 -60.12890625 49.9140625 C-61.29933472 49.93170654 -62.46976318 49.94935059 -63.67565918 49.9675293 C-68.01280434 50.03019709 -72.3501715 50.07665854 -76.6875 50.125 C-86.401875 50.24875 -96.11625 50.3725 -106.125 50.5 C-106.125 71.95 -106.125 93.4 -106.125 115.5 C-88.37113013 115.70944321 -88.37113013 115.70944321 -70.61694336 115.88793945 C-53.99424406 116.09562887 -40.73296196 117.25681522 -25.125 123.5 C-25.125 97.1 -25.125 70.7 -25.125 43.5 C-28.39278476 43.5 -31.15943647 45.14687655 -34.12890625 46.4296875 Z M-145.75 59.9375 C-153.37939502 68.16921568 -156.34142203 75.21719797 -156.125 86.5 C-154.71136507 95.91508315 -149.54150209 104.30191408 -142.11328125 110.21484375 C-136.19359053 114.04112714 -131.17382416 115.5 -124.125 115.5 C-124.125 94.05 -124.125 72.6 -124.125 50.5 C-132.5406609 50.5 -139.70147786 54.32101516 -145.75 59.9375 Z M25.875 70.5 C25.875 79.08 25.875 87.66 25.875 96.5 C34.2245355 94.51056308 34.2245355 94.51056308 39.875 89.5 C41.50833319 84.60000043 41.56986987 80.94532932 39.3125 76.25 C36.4029717 72.96745525 34.02672079 71.83448168 29.875 70.5 C28.555 70.5 27.235 70.5 25.875 70.5 Z M-106.125 133.5 C-106.125 149.34 -106.125 165.18 -106.125 181.5 C-101.175 181.5 -96.225 181.5 -91.125 181.5 C-91.125 165.66 -91.125 149.82 -91.125 133.5 C-96.075 133.5 -101.025 133.5 -106.125 133.5 Z " fill="#566EE9" transform="translate(321.125,164.5)"/>
<path d="M0 0 C2.13105367 1.2991203 4.27556254 2.57324372 6.42333984 3.84448242 C25.94571769 15.51082251 25.94571769 15.51082251 29.39208984 25.63549805 C31.06214888 32.30523066 30.16500983 38.05925428 27.01318359 44.1159668 C21.94582927 51.95906256 14.13126431 56.13000791 6.25268555 60.67236328 C4.07524779 61.92871825 1.91181637 63.20682214 -0.25048828 64.48901367 C-1.65011533 65.30997832 -3.05048209 66.12968342 -4.45166016 66.94799805 C-5.08837143 67.32301956 -5.7250827 67.69804108 -6.38108826 68.08442688 C-13.05697707 71.91552961 -20.09104599 75.42449372 -27.98681641 74.1159668 C-34.61197688 72.2198391 -39.28240998 68.95799792 -42.98681641 63.1159668 C-44.61700501 59.57943292 -45.24400881 56.78709286 -45.27734375 52.90185547 C-45.29010345 51.88697556 -45.30286316 50.87209564 -45.31600952 49.82646179 C-45.31823517 48.73992813 -45.32046082 47.65339447 -45.32275391 46.53393555 C-45.33273911 44.84171623 -45.33273911 44.84171623 -45.34292603 43.11531067 C-45.35304092 40.73069893 -45.35774341 38.34605895 -45.35742188 35.96142578 C-45.36178824 32.32691375 -45.39810349 28.69362295 -45.43603516 25.05932617 C-45.44190499 22.73836677 -45.44587327 20.41740161 -45.44775391 18.09643555 C-45.46212494 17.01597458 -45.47649597 15.93551361 -45.49130249 14.8223114 C-45.44622666 7.3185141 -44.34979592 1.8462096 -39.16259766 -3.9074707 C-25.1095358 -14.10109629 -13.32452086 -8.13289046 0 0 Z M-26.65104675 9.35668945 C-28.28454063 11.50808492 -28.36143891 12.58602788 -28.35913086 15.2644043 C-28.36535965 16.09536621 -28.37158844 16.92632812 -28.37800598 17.7824707 C-28.36879623 18.67627441 -28.35958649 19.57007813 -28.35009766 20.4909668 C-28.35059616 21.41184082 -28.35109467 22.33271484 -28.35160828 23.28149414 C-28.34926798 25.22829344 -28.33954204 27.17509577 -28.32299805 29.12182617 C-28.29940692 32.1045228 -28.30243726 35.0863256 -28.30908203 38.0690918 C-28.30350522 39.95972214 -28.29639532 41.8503487 -28.28759766 43.7409668 C-28.28850906 44.63477051 -28.28942047 45.52857422 -28.2903595 46.44946289 C-28.28082748 47.2804248 -28.27129547 48.11138672 -28.26147461 48.9675293 C-28.25686722 49.69794434 -28.25225983 50.42835938 -28.24751282 51.1809082 C-28.0870954 53.44074303 -28.0870954 53.44074303 -25.98681641 56.1159668 C-21.32463677 56.97834713 -18.44348246 54.93624292 -14.54931641 52.5378418 C-13.94676025 52.16999573 -13.3442041 51.80214966 -12.72338867 51.42315674 C-11.45287242 50.64477836 -10.18558672 49.86110523 -8.92138672 49.07250977 C-6.99942189 47.87382852 -5.06852108 46.69084482 -3.13525391 45.51049805 C0.27268673 43.41534946 3.67188741 41.31682696 7.01318359 39.1159668 C7.97095703 38.49496094 8.92873047 37.87395508 9.91552734 37.23413086 C12.28304494 35.23804128 12.28304494 35.23804128 12.58959961 32.07910156 C12.27720354 29.06464525 12.27720354 29.06464525 10.26293945 27.26025391 C9.44704346 26.7472876 8.63114746 26.23432129 7.79052734 25.70581055 C6.41936768 24.82771729 6.41936768 24.82771729 5.02050781 23.93188477 C4.02809082 23.33263184 3.03567383 22.73337891 2.01318359 22.1159668 C0.51489014 21.19195068 0.51489014 21.19195068 -1.01367188 20.24926758 C-4.13057173 18.35610874 -7.27186913 16.51173614 -10.42431641 14.6784668 C-11.49875 14.04231445 -12.57318359 13.40616211 -13.68017578 12.75073242 C-14.70820312 12.15067383 -15.73623047 11.55061523 -16.79541016 10.93237305 C-17.721521 10.39040283 -18.64763184 9.84843262 -19.60180664 9.29003906 C-22.42583844 7.89984878 -24.02621528 7.39981619 -26.65104675 9.35668945 Z " fill="#2E91DD" transform="translate(85.98681640625,91.884033203125)"/>
<path d="M0 0 C5.94 0 11.88 0 18 0 C18 5.61 18 11.22 18 17 C12.06 17 6.12 17 0 17 C0 11.39 0 5.78 0 0 Z " fill="#5272E8" transform="translate(263,239)"/>
<path d="M0 0 C5.94 0 11.88 0 18 0 C18 5.61 18 11.22 18 17 C12.06 17 6.12 17 0 17 C0 11.39 0 5.78 0 0 Z " fill="#5272E8" transform="translate(230,239)"/>
<path d="M0 0 C5.61 0 11.22 0 17 0 C17 5.61 17 11.22 17 17 C11.39 17 5.78 17 0 17 C0 11.39 0 5.78 0 0 Z " fill="#8941F8" transform="translate(214,429)"/>
<path d="M0 0 C5.61 0 11.22 0 17 0 C17 5.61 17 11.22 17 17 C11.39 17 5.78 17 0 17 C0 11.39 0 5.78 0 0 Z " fill="#8941F8" transform="translate(181,429)"/>
<path d="M0 0 C5.61 0 11.22 0 17 0 C17 5.61 17 11.22 17 17 C11.39 17 5.78 17 0 17 C0 11.39 0 5.78 0 0 Z " fill="#8941F8" transform="translate(148,429)"/>
</svg>
