<?xml version="1.0" encoding="UTF-8"?>
<svg version="1.1" xmlns="http://www.w3.org/2000/svg" width="512" height="512">
<path d="M0 0 C53.46 0 106.92 0 162 0 C162 53.46 162 106.92 162 162 C108.54 162 55.08 162 0 162 C0 108.54 0 55.08 0 0 Z M57 33 C55.83335692 35.55902978 54.83011234 38.02507528 53.890625 40.6640625 C53.46457726 41.81705086 53.46457726 41.81705086 53.02992249 42.99333191 C52.0933652 45.53369906 51.17193136 48.07929266 50.25 50.625 C49.2608087 53.31785549 48.26762056 56.00921687 47.27436829 58.70057678 C46.58288787 60.5752153 45.8927138 62.45033616 45.20378113 64.32591248 C41.33217602 74.85660005 37.32367296 85.33436727 33.3125 95.8125 C31.39958743 100.81229717 29.48807654 105.8125301 27.59228516 110.81884766 C26.623807 113.37540816 25.6342586 115.91830781 24.62255859 118.45849609 C24.24566895 119.42480957 23.8687793 120.39112305 23.48046875 121.38671875 C23.00516724 122.57140747 23.00516724 122.57140747 22.52026367 123.7800293 C21.87002273 126.55461443 22.10021497 128.30458762 23 131 C26.50187953 133.33458635 27.88028047 133.67260727 32 133 C36.43697035 127.69393237 38.40742975 121.17489951 40.75 114.75 C41.16121094 113.64914062 41.57242188 112.54828125 41.99609375 111.4140625 C44.12516301 106.33654243 44.12516301 106.33654243 45 101 C63.315 101.495 63.315 101.495 82 102 C87.3125 116.375 87.3125 116.375 88.9699707 120.90771484 C89.40913818 122.08027832 89.84830566 123.2528418 90.30078125 124.4609375 C90.74591064 125.66540527 91.19104004 126.86987305 91.6496582 128.11083984 C92.81218698 131.24956204 92.81218698 131.24956204 96 133 C99.12026907 133.32502803 101.14747535 133.51151479 103.875 131.875 C105.55195702 129.08007164 105.26268148 127.25996226 105 124 C104.08912744 120.82424743 102.88041091 117.78296686 101.66015625 114.71484375 C101.12956604 113.3443261 101.12956604 113.3443261 100.58825684 111.94612122 C99.42221726 108.93957221 98.2424717 105.93860534 97.0625 102.9375 C95.8339899 99.78373505 94.60880867 96.62869128 93.38401794 93.47348022 C92.53891219 91.29663463 91.69267493 89.12022799 90.84535217 86.94424438 C87.87906504 79.31397559 84.98191857 71.66011687 82.125 63.98828125 C81.7380748 62.95166855 81.3511496 61.91505585 80.95249939 60.84703064 C79.45194916 56.82586608 77.95167572 52.80467867 76.46585083 48.77804565 C75.44405852 46.01075102 74.41246523 43.24729207 73.37890625 40.484375 C73.07964233 39.66467728 72.78037842 38.84497955 72.4720459 38.0004425 C72.18937866 37.24973984 71.90671143 36.49903717 71.61547852 35.72558594 C71.37442886 35.07458923 71.13337921 34.42359253 70.88502502 33.75286865 C69.85063027 31.70416032 68.77504738 30.45188364 67 29 C61.96258444 28.24974662 60.16323917 29.12807804 57 33 Z M128 30 C125.54786465 34.53816572 125.71040949 38.89773694 125.7253418 43.91772461 C125.72023087 44.80614548 125.71511993 45.69456635 125.70985413 46.60990906 C125.69597703 49.54078953 125.69691344 52.47143437 125.69921875 55.40234375 C125.6953309 57.44348742 125.69099605 59.48463028 125.68623352 61.52577209 C125.67877544 65.80195744 125.6790597 70.07806021 125.68432617 74.35424805 C125.69012142 79.82974378 125.67318634 85.30490133 125.6499815 90.78034115 C125.63523886 94.99514232 125.63437317 99.20986213 125.63749123 103.42468452 C125.63697832 105.44327019 125.63174638 107.46186044 125.62167931 109.48042107 C125.60932155 112.30479698 125.61610262 115.12851521 125.62768555 117.95288086 C125.62004181 118.78372192 125.61239807 119.61456299 125.60452271 120.47058105 C125.64878309 125.36162393 126.24747362 128.7809102 129 133 C131.81870433 134.15639152 133.27313011 134.20767711 136.1875 133.375 C138.69531881 131.47251676 139.07883927 130.02821267 140 127 C140.28974229 124.02653469 140.28353961 121.06805292 140.2746582 118.08227539 C140.27976913 117.19385452 140.28488007 116.30543365 140.29014587 115.39009094 C140.30402297 112.45921047 140.30308656 109.52856563 140.30078125 106.59765625 C140.3046691 104.55651258 140.30900395 102.51536972 140.31376648 100.47422791 C140.32122456 96.19804256 140.3209403 91.92193979 140.31567383 87.64575195 C140.30987858 82.17025622 140.32681366 76.69509867 140.3500185 71.21965885 C140.36476114 67.00485768 140.36562683 62.79013787 140.36250877 58.57531548 C140.36302168 56.55672981 140.36825362 54.53813956 140.37832069 52.51957893 C140.39067845 49.69520302 140.38389738 46.87148479 140.37231445 44.04711914 C140.37995819 43.21627808 140.38760193 42.38543701 140.39547729 41.52941895 C140.35121691 36.63837607 139.75252638 33.2190898 137 29 C133.4406559 27.53975627 131.08163225 27.66221002 128 30 Z " fill="#4E7FD9" transform="translate(175,175)"/>
<path d="M0 0 C0.81704692 -0.00694553 1.63409384 -0.01389106 2.47589976 -0.02104706 C5.19967422 -0.03926849 7.92257289 -0.0290665 10.64637756 -0.01878357 C12.60485483 -0.02584451 14.56332664 -0.03459026 16.52178955 -0.04489136 C21.83174978 -0.06737544 27.14141179 -0.06444784 32.45140147 -0.05556989 C36.88733011 -0.05045644 41.32320289 -0.05775548 45.75912577 -0.06504196 C56.22517352 -0.08203788 66.69107546 -0.07847817 77.15711975 -0.06175232 C87.94825947 -0.04482975 98.73899472 -0.06066827 109.53009027 -0.0929752 C118.8016477 -0.11967951 128.07307929 -0.12694484 137.34467131 -0.11846012 C142.87927545 -0.11353358 148.41363622 -0.11573198 153.94820976 -0.13624763 C159.15307117 -0.15461788 164.35735121 -0.14862928 169.56218147 -0.12404823 C171.46970455 -0.11904471 173.37727202 -0.12251816 175.28475952 -0.13519669 C177.89436188 -0.15116664 180.50205888 -0.13614052 183.11157227 -0.11352539 C183.86168436 -0.12536112 184.61179644 -0.13719685 185.3846392 -0.14939123 C191.1566992 -0.04816054 195.25811816 1.70924557 199.61927795 5.5146637 C203.60649691 10.15060337 204.19970129 14.89184355 204.13394165 20.89538574 C204.14088718 21.71243266 204.14783271 22.52947958 204.15498871 23.3712855 C204.17321014 26.09505996 204.16300816 28.81795864 204.15272522 31.54176331 C204.15978616 33.50024057 204.16853191 35.45871239 204.17883301 37.41717529 C204.20131709 42.72713552 204.19838949 48.03679754 204.18951154 53.34678721 C204.18439809 57.78271585 204.19169713 62.21858863 204.19898361 66.65451151 C204.21597953 77.12055926 204.21241982 87.5864612 204.19569397 98.05250549 C204.1787714 108.84364522 204.19460992 119.63438046 204.22691685 130.42547601 C204.25362116 139.69703344 204.2608865 148.96846503 204.25240177 158.24005705 C204.24747523 163.77466119 204.24967363 169.30902196 204.27018929 174.8435955 C204.28855953 180.04845692 204.28257093 185.25273695 204.25798988 190.45756721 C204.25298636 192.36509029 204.25645981 194.27265776 204.26913834 196.18014526 C204.28510829 198.78974762 204.27008217 201.39744462 204.24746704 204.00695801 C204.25930277 204.7570701 204.2711385 205.50718219 204.28333288 206.28002495 C204.18210219 212.05208494 202.42469608 216.15350391 198.61927795 220.5146637 C193.98333828 224.50188265 189.2420981 225.09508703 183.23855591 225.02932739 C182.42150899 225.03627292 181.60446207 225.04321845 180.76265615 225.05037445 C178.03888169 225.06859588 175.31598301 225.0583939 172.59217834 225.04811096 C170.63370108 225.0551719 168.67522926 225.06391765 166.71676636 225.07421875 C161.40680613 225.09670283 156.09714411 225.09377523 150.78715444 225.08489728 C146.3512258 225.07978383 141.91535302 225.08708287 137.47943014 225.09436935 C127.01338239 225.11136527 116.54748045 225.10780557 106.08143616 225.09107971 C95.29029643 225.07415714 84.49956119 225.08999566 73.70846564 225.12230259 C64.43690821 225.14900691 55.16547662 225.15627224 45.8938846 225.14778751 C40.35928046 225.14286098 34.82491969 225.14505937 29.29034615 225.16557503 C24.08548473 225.18394527 18.8812047 225.17795668 13.67637444 225.15337563 C11.76885136 225.1483721 9.86128389 225.15184555 7.95379639 225.16452408 C5.34419403 225.18049403 2.73649703 225.16546791 0.12698364 225.14285278 C-0.62312845 225.15468851 -1.37324054 225.16652424 -2.1460833 225.17871863 C-7.91814329 225.07748794 -12.01956226 223.32008182 -16.38072205 219.5146637 C-20.367941 214.87872402 -20.96114538 210.13748384 -20.89538574 204.13394165 C-20.90233127 203.31689473 -20.9092768 202.49984781 -20.9164328 201.65804189 C-20.93465423 198.93426743 -20.92445225 196.21136876 -20.91416931 193.48756409 C-20.92123025 191.52908682 -20.929976 189.57061501 -20.9402771 187.6121521 C-20.96276118 182.30219187 -20.95983358 176.99252986 -20.95095563 171.68254018 C-20.94584218 167.24661154 -20.95314122 162.81073876 -20.9604277 158.37481588 C-20.97742362 147.90876813 -20.97386392 137.44286619 -20.95713806 126.9768219 C-20.94021549 116.18568218 -20.95605401 105.39494693 -20.98836094 94.60385138 C-21.01506526 85.33229395 -21.02233059 76.06086236 -21.01384586 66.78927034 C-21.00891933 61.2546662 -21.01111772 55.72030543 -21.03163338 50.18573189 C-21.05000362 44.98087048 -21.04401503 39.77659044 -21.01943398 34.57176018 C-21.01443045 32.6642371 -21.0179039 30.75666963 -21.03058243 28.84918213 C-21.04655238 26.23957977 -21.03152626 23.63188277 -21.00891113 21.02236938 C-21.02074686 20.2722573 -21.03258259 19.52214521 -21.04477698 18.74930245 C-20.94354629 12.97724245 -19.18614017 8.87582349 -15.38072205 4.5146637 C-10.74478237 0.52744474 -6.00354219 -0.06575964 0 0 Z M1.80677795 21.9521637 C-3.03196443 27.62040478 -3.50396211 31.85525533 -3.51443481 39.14305115 C-3.51670037 39.79575269 -3.51896593 40.44845423 -3.52130014 41.12093461 C-3.52761214 43.30021013 -3.52681258 45.47942303 -3.52598572 47.65870667 C-3.52897895 49.224422 -3.53238186 50.79013659 -3.53616333 52.35585022 C-3.54499062 56.6038265 -3.5473409 60.85178264 -3.54797912 65.09976721 C-3.54869031 67.75504738 -3.55082595 70.41032245 -3.55347633 73.06560135 C-3.56272537 82.33264236 -3.56681175 91.599669 -3.56602478 100.86671448 C-3.56542402 109.49916744 -3.57597662 118.1315579 -3.59176844 126.76399505 C-3.60485184 134.18070738 -3.61020834 141.5973993 -3.60956937 149.01412308 C-3.60931463 153.4414484 -3.61215272 157.86871815 -3.62274742 162.29603195 C-3.6324419 166.46077148 -3.63249833 170.62540248 -3.62523079 174.79014587 C-3.62418664 176.31591577 -3.62653773 177.84169247 -3.63259125 179.36745071 C-3.64033842 181.45586345 -3.6356487 183.54390392 -3.62796021 185.63230896 C-3.62850497 186.79925734 -3.62904974 187.96620571 -3.62961102 189.16851616 C-3.24049177 194.39996703 -2.40830936 198.32898602 1.05677795 202.3271637 C6.72501904 207.16590608 10.95986959 207.63790376 18.24766541 207.64837646 C19.22671772 207.6517748 19.22671772 207.6517748 20.22554886 207.65524179 C22.40482439 207.66155379 24.58403728 207.66075423 26.76332092 207.65992737 C28.32903626 207.6629206 29.89475085 207.66632351 31.46046448 207.67010498 C35.70844076 207.67893227 39.9563969 207.68128255 44.20438147 207.68192077 C46.85966164 207.68263196 49.5149367 207.6847676 52.17021561 207.68741798 C61.43725662 207.69666702 70.70428326 207.7007534 79.97132874 207.69996643 C88.6037817 207.69936567 97.23617216 207.70991827 105.86860931 207.72571009 C113.28532164 207.73879349 120.70201356 207.74414999 128.11873734 207.74351102 C132.54606265 207.74325628 136.97333241 207.74609437 141.40064621 207.75668907 C145.56538574 207.76638355 149.73001674 207.76643998 153.89476013 207.75917244 C155.42053003 207.75812829 156.94630673 207.76047938 158.47206497 207.7665329 C160.56047771 207.77428007 162.64851818 207.76959035 164.73692322 207.76190186 C166.48734578 207.76271901 166.48734578 207.76271901 168.27313042 207.76355267 C173.50458129 207.37443342 177.43360028 206.54225101 181.43177795 203.0771637 C186.27052034 197.40892261 186.74251802 193.17407207 186.75299072 185.88627625 C186.75638906 184.90722393 186.75638906 184.90722393 186.75985605 183.90839279 C186.76616805 181.72911726 186.76536849 179.54990437 186.76454163 177.37062073 C186.76753486 175.8049054 186.77093776 174.2391908 186.77471924 172.67347717 C186.78354653 168.42550089 186.78589681 164.17754475 186.78653502 159.92956018 C186.78724622 157.27428001 186.78938186 154.61900495 186.79203224 151.96372604 C186.80128128 142.69668503 186.80536766 133.42965839 186.80458069 124.16261292 C186.80397993 115.53015995 186.81453253 106.89776949 186.83032435 98.26533234 C186.84340775 90.84862001 186.84876425 83.43192809 186.84812528 76.01520431 C186.84787054 71.587879 186.85070863 67.16060924 186.86130333 62.73329544 C186.87099781 58.56855591 186.87105424 54.40392491 186.8637867 50.23918152 C186.86274255 48.71341162 186.86509363 47.18763492 186.87114716 45.66187668 C186.87889433 43.57346395 186.8742046 41.48542347 186.86651611 39.39701843 C186.86706088 38.23007006 186.86760565 37.06312168 186.86816692 35.86081123 C186.47904767 30.62936036 185.64686527 26.70034137 182.18177795 22.7021637 C176.51353687 17.86342131 172.27868632 17.39142363 164.9908905 17.38095093 C164.01183819 17.37755259 164.01183819 17.37755259 163.01300704 17.37408561 C160.83373152 17.3677736 158.65451862 17.36857316 156.47523499 17.36940002 C154.90951965 17.3664068 153.34380506 17.36300389 151.77809143 17.35922241 C147.53011515 17.35039512 143.28215901 17.34804484 139.03417444 17.34740663 C136.37889427 17.34669543 133.72361921 17.34455979 131.0683403 17.34190941 C121.80129929 17.33266037 112.53427265 17.32857399 103.26722717 17.32936096 C94.63477421 17.32996172 86.00238375 17.31940912 77.3699466 17.3036173 C69.95323427 17.2905339 62.53654235 17.2851774 55.11981857 17.28581637 C50.69249325 17.28607111 46.2652235 17.28323302 41.8379097 17.27263832 C37.67317017 17.26294384 33.50853917 17.26288741 29.34379578 17.27015495 C27.81802588 17.2711991 26.29224918 17.26884802 24.76649094 17.26279449 C22.6780782 17.25504732 20.59003773 17.25973705 18.50163269 17.26742554 C17.33468431 17.26688077 16.16773594 17.266336 14.96542549 17.26577473 C9.73397462 17.65489398 5.80495563 18.48707638 1.80677795 21.9521637 Z " fill="#4E7FD9" transform="translate(164.38072204589844,143.48533630371094)"/>
<path d="M0 0 C0.76313004 -0.00524185 1.52626007 -0.0104837 2.31251526 -0.0158844 C3.92553491 -0.02230379 5.53860139 -0.02096861 7.15161133 -0.01245117 C9.61689885 -0.00394767 12.07986374 -0.03268882 14.54492188 -0.06445312 C16.11328056 -0.06606546 17.68164333 -0.06548699 19.25 -0.0625 C19.98552597 -0.07373398 20.72105194 -0.08496796 21.47886658 -0.09654236 C24.93538718 -0.04959937 26.85412649 0.18136047 29.65649414 2.27709961 C31.7528086 5.22234307 31.78123469 6.89462311 31.19140625 10.43359375 C28.95934194 13.28139994 27.64147626 14.28357041 24.19140625 15.43359375 C22.63718896 15.51466061 21.07973598 15.54116273 19.5234375 15.53125 C18.63076172 15.52802734 17.73808594 15.52480469 16.81835938 15.52148438 C15.42520508 15.50891602 15.42520508 15.50891602 14.00390625 15.49609375 C12.59334961 15.48932617 12.59334961 15.48932617 11.15429688 15.48242188 C8.83326913 15.47064001 6.51236981 15.45418933 4.19140625 15.43359375 C4.16124709 19.61579081 4.17689998 23.79461663 4.23413086 27.97631836 C4.24723136 29.39715655 4.2480404 30.81816539 4.23608398 32.23901367 C3.83099868 40.2882516 3.83099868 40.2882516 6.74169922 47.40087891 C8.82508331 48.91229125 8.82508331 48.91229125 12.19140625 50.43359375 C12.85140625 51.42359375 13.51140625 52.41359375 14.19140625 53.43359375 C16.66631739 53.77174123 18.90492313 53.92231714 21.38671875 53.9453125 C22.09416229 53.9632637 22.80160583 53.9812149 23.53048706 53.99971008 C25.79239928 54.05393817 28.05409909 54.08774691 30.31640625 54.12109375 C31.84898798 54.15425601 33.38154163 54.18874465 34.9140625 54.22460938 C38.67302404 54.30967102 42.43192125 54.37642128 46.19140625 54.43359375 C46.1756958 53.82362549 46.15998535 53.21365723 46.14379883 52.58520508 C46.08120812 49.80559665 46.04234003 47.02613683 46.00390625 44.24609375 C45.97876953 43.28638672 45.95363281 42.32667969 45.92773438 41.33789062 C45.83232793 32.14707024 45.83232793 32.14707024 49.19140625 28.43359375 C52.72346573 27.4703048 55.07330207 27.05108442 58.56640625 28.24609375 C60.19140625 29.43359375 60.19140625 29.43359375 61.19140625 31.43359375 C61.31447469 34.0245574 61.3797616 36.58763172 61.39453125 39.1796875 C61.40023132 39.94660416 61.4059314 40.71352081 61.4118042 41.50367737 C61.42125485 43.12686787 61.42778844 44.75007757 61.43164062 46.37329102 C61.44135476 48.85792404 61.47237971 51.34173278 61.50390625 53.82617188 C61.51043552 55.40233883 61.51568629 56.97851171 61.51953125 58.5546875 C61.53187805 59.29851181 61.54422485 60.04233612 61.5569458 60.80870056 C61.53463349 65.96872275 61.53463349 65.96872275 59.93711853 68.13241577 C57.75601693 69.75811401 56.6047653 69.79793415 53.90356445 69.77416992 C53.04289871 69.77394333 52.18223297 69.77371674 51.29548645 69.77348328 C50.3703978 69.75799942 49.44530914 69.74251556 48.4921875 69.7265625 C47.54200241 69.72231766 46.59181732 69.71807281 45.61283875 69.71369934 C42.57624037 69.69689859 39.54030423 69.65924367 36.50390625 69.62109375 C34.44597312 69.60604872 32.3880296 69.59236 30.33007812 69.58007812 C25.28359877 69.54699046 20.23761481 69.49519837 15.19140625 69.43359375 C14.89935303 70.38065186 14.6072998 71.32770996 14.30639648 72.3034668 C13.09461244 75.70532429 12.00091307 76.97994101 9.25390625 79.24609375 C8.56425781 79.83003906 7.87460938 80.41398437 7.1640625 81.015625 C2.2022232 84.58225404 -3.97385541 83.84427254 -9.80859375 83.43359375 C-16.10514895 81.45134489 -19.95453748 76.63605459 -23.18359375 71.05859375 C-24.93499451 63.70271054 -23.93680464 58.24877068 -20.3125 51.609375 C-18.15455314 48.48735838 -16.20615422 47.09462331 -12.80859375 45.43359375 C-12.14859375 45.43359375 -11.48859375 45.43359375 -10.80859375 45.43359375 C-10.83215942 43.54870239 -10.83215942 43.54870239 -10.85620117 41.62573242 C-10.91045558 36.96857093 -10.94492751 32.31143744 -10.97338867 27.65405273 C-10.98848554 25.63740341 -11.0089649 23.62078696 -11.03491211 21.60424805 C-11.07125586 18.70743704 -11.08831095 15.81105969 -11.1015625 12.9140625 C-11.11704636 12.01084763 -11.13253021 11.10763275 -11.14848328 10.17704773 C-11.14882317 8.91608025 -11.14882317 8.91608025 -11.14916992 7.62963867 C-11.15583176 6.89017502 -11.16249359 6.15071136 -11.1693573 5.38883972 C-10.08016033 -0.5143287 -4.93602422 -0.01964664 0 0 Z " fill="#23C5E4" transform="translate(106.80859375,346.56640625)"/>
<path d="M0 0 C4.63308978 1.74176307 8.57232103 4.59983187 11 9 C11 9.66 11 10.32 11 11 C12.31718018 10.98428955 13.63436035 10.9685791 14.99145508 10.95239258 C19.87225239 10.89814614 24.753023 10.8636691 29.6340332 10.83520508 C31.74768554 10.8201064 33.86130648 10.79962574 35.97485352 10.77368164 C39.01065815 10.73734603 42.04604906 10.72028456 45.08203125 10.70703125 C46.5024749 10.68380547 46.5024749 10.68380547 47.95161438 10.66011047 C49.27264412 10.65977058 49.27264412 10.65977058 50.62036133 10.65942383 C51.39535477 10.65276199 52.17034821 10.64610016 52.96882629 10.63923645 C55.57275069 11.10172816 56.44164394 11.88882954 58 14 C58.3225595 16.68080698 58.46801722 19.1252712 58.46875 21.80859375 C58.48017029 22.9532888 58.48017029 22.9532888 58.49182129 24.12110901 C58.50261975 25.73410777 58.50547639 27.34717644 58.50097656 28.96020508 C58.5000046 31.42583084 58.54161309 33.88833972 58.5859375 36.35351562 C58.59114501 37.92186852 58.59383269 39.49023222 58.59375 41.05859375 C58.61014526 41.79411972 58.62654053 42.52964569 58.64343262 43.28746033 C58.59260816 47.06015855 58.29132379 48.68574338 55.68945312 51.49243164 C53 53 53 53 49.375 53.0625 C46 52 46 52 44.30078125 50.109375 C42.3673254 45.48766072 42.68279185 41.13969047 42.8125 36.1875 C42.82603516 35.20845703 42.83957031 34.22941406 42.85351562 33.22070312 C42.88874688 30.81323375 42.93800735 28.40690436 43 26 C38.65728085 25.99466496 34.31711672 26.02829185 29.97509766 26.09765625 C28.49895315 26.11579627 27.02263906 26.1233883 25.54638672 26.12011719 C23.42022058 26.11725366 21.29755523 26.15261821 19.171875 26.1953125 C17.8940918 26.20578613 16.61630859 26.21625977 15.29980469 26.22705078 C11.744467 26.69226854 11.744467 26.69226854 9.75146484 29.93041992 C9.17348145 30.94338135 8.59549805 31.95634277 8 33 C6.94554687 33.63292969 5.89109375 34.26585937 4.8046875 34.91796875 C2.2900509 36.89533717 2.00375691 37.97901697 1.42675781 41.20166016 C1.18334801 45.24976031 1.11565509 49.25914723 1.125 53.3125 C1.10686374 54.73506298 1.08605809 56.1575946 1.0625 57.58007812 C1.01077309 61.05355853 0.99556049 64.52608539 1 68 C1.60996826 67.98428955 2.21993652 67.9685791 2.84838867 67.95239258 C5.6279971 67.88980187 8.40745692 67.85093378 11.1875 67.8125 C12.14720703 67.78736328 13.10691406 67.76222656 14.09570312 67.73632812 C23.26281656 67.64116778 23.26281656 67.64116778 27 71 C28.0625 74.375 28.0625 74.375 28 78 C26.49243164 80.68945312 26.49243164 80.68945312 24 83 C21.14834823 83.48473271 18.90277805 83.65714838 16.05859375 83.59375 C15.29450699 83.59379028 14.53042023 83.59383057 13.74317932 83.59387207 C12.13184357 83.58852184 10.52050806 83.57095984 8.90942383 83.54199219 C6.44206156 83.50007749 3.97742441 83.50092853 1.50976562 83.5078125 C-0.05731064 83.49732148 -1.62437285 83.48438383 -3.19140625 83.46875 C-3.92895645 83.46854858 -4.66650665 83.46834717 -5.42640686 83.46813965 C-10.53010136 83.35003231 -10.53010136 83.35003231 -12.69683838 81.73600769 C-14.31238662 79.58385394 -14.36463478 78.47446033 -14.34057617 75.80395508 C-14.34034958 74.96331009 -14.34012299 74.1226651 -14.33988953 73.25654602 C-14.32440567 72.35333115 -14.30892181 71.45011627 -14.29296875 70.51953125 C-14.28872391 69.59154221 -14.28447906 68.66355316 -14.28010559 67.70744324 C-14.26330662 64.74216757 -14.22565216 61.7775704 -14.1875 58.8125 C-14.17245474 56.80274419 -14.15876606 54.79297773 -14.14648438 52.78320312 C-14.11339908 47.85520714 -14.06160833 42.92771862 -14 38 C-14.78930908 37.70198486 -15.57861816 37.40396973 -16.3918457 37.09692383 C-21.11268862 35.11145652 -23.86062708 30.96800777 -26.375 26.625 C-27.90583213 20.19550507 -27.59572057 14.68027879 -24.34765625 8.859375 C-17.87433394 -0.07193346 -10.59262904 -1.0441803 0 0 Z " fill="#793ACF" transform="translate(110,85)"/>
<path d="M0 0 C5.43489319 5.29553695 9.39588575 9.83902519 9.8125 17.6875 C9.64698286 23.54875393 7.73903749 27.97094414 3.68359375 32.20703125 C-0.99194965 36.375 -0.99194965 36.375 -3.5625 36.375 C-3.54678955 37.63159424 -3.5310791 38.88818848 -3.51489258 40.18286133 C-3.46063817 44.84002282 -3.42616624 49.49715631 -3.39770508 54.15454102 C-3.38260821 56.17119034 -3.36212885 58.18780679 -3.33618164 60.2043457 C-3.29983789 63.10115671 -3.2827828 65.99753406 -3.26953125 68.89453125 C-3.25404739 69.79774612 -3.23856354 70.700961 -3.22261047 71.63154602 C-3.22238388 72.47219101 -3.22215729 73.312836 -3.22192383 74.17895508 C-3.21193108 75.28815056 -3.21193108 75.28815056 -3.20173645 76.41975403 C-3.67224086 78.96976733 -4.49819093 79.84058511 -6.5625 81.375 C-9.25581011 81.6732147 -11.71325794 81.79551661 -14.40625 81.7734375 C-15.55450256 81.77774277 -15.55450256 81.77774277 -16.72595215 81.78213501 C-18.34318787 81.784175 -19.9604483 81.77864963 -21.57763672 81.76611328 C-24.05362091 81.75005758 -26.52797285 81.76596297 -29.00390625 81.78515625 C-30.57552444 81.78317381 -32.14714161 81.7793301 -33.71875 81.7734375 C-34.45943726 81.77951019 -35.20012451 81.78558289 -35.96325684 81.7918396 C-41.04950742 81.7222147 -41.04950742 81.7222147 -43.49804688 80.06494141 C-45.28487013 77.22815459 -45.44655773 74.67935482 -45.5625 71.375 C-43.8697108 68.15870053 -43.05069868 67.53773289 -39.5625 66.375 C-37.93530518 66.29356145 -36.30498281 66.2674698 -34.67578125 66.27734375 C-33.73798828 66.28056641 -32.80019531 66.28378906 -31.83398438 66.28710938 C-30.36928711 66.29967773 -30.36928711 66.29967773 -28.875 66.3125 C-27.88693359 66.31701172 -26.89886719 66.32152344 -25.88085938 66.32617188 C-23.44134526 66.33795697 -21.00195311 66.35440989 -18.5625 66.375 C-18.55716381 62.17465973 -18.59080478 57.97696044 -18.66015625 53.77734375 C-18.67829322 52.34970495 -18.68588884 50.92189088 -18.68261719 49.49414062 C-18.67975269 47.43742952 -18.7151251 45.38433408 -18.7578125 43.328125 C-18.77352295 41.47429199 -18.77352295 41.47429199 -18.78955078 39.58300781 C-19.27019086 36.11708573 -19.27019086 36.11708573 -22.46435547 34.13574219 C-23.48674316 33.55469727 -24.50913086 32.97365234 -25.5625 32.375 C-29.5625 27.11184211 -29.5625 27.11184211 -29.5625 24.375 C-38.8025 24.375 -48.0425 24.375 -57.5625 24.375 C-57.44444338 30.68716954 -57.44444338 30.68716954 -57.29223633 36.99853516 C-57.24330667 42.20401896 -57.5736204 45.90253609 -60.5625 50.375 C-63.40333641 51.79541821 -65.41727278 51.68952272 -68.5625 51.375 C-70.72680664 49.85180664 -70.72680664 49.85180664 -72.5625 47.375 C-72.94835898 44.59137012 -73.10103189 42.21215988 -73.05859375 39.43359375 C-73.06004898 38.66950699 -73.06150421 37.90542023 -73.06300354 37.11817932 C-73.06134707 35.5068886 -73.04981383 33.89558165 -73.02905273 32.28442383 C-73.00005511 29.817189 -73.00845572 27.35209816 -73.02148438 24.88476562 C-73.01524786 23.31769789 -73.00685759 21.75063693 -72.99609375 20.18359375 C-72.99902939 19.44604355 -73.00196503 18.70849335 -73.00498962 17.94859314 C-72.91073774 12.8393476 -72.91073774 12.8393476 -71.28979492 10.677948 C-69.180977 9.08720628 -68.14003894 9.01203566 -65.52172852 9.0378418 C-64.71401505 9.03741379 -63.90630157 9.03698578 -63.07411194 9.0365448 C-62.20531906 9.0489772 -61.33652618 9.06140961 -60.44140625 9.07421875 C-58.60090786 9.06657762 -56.76041283 9.05808789 -54.91992188 9.04882812 C-52.01853422 9.05104086 -49.117815 9.06256815 -46.21655273 9.09008789 C-43.41581047 9.11078127 -40.61710664 9.09479284 -37.81640625 9.07421875 C-36.51625328 9.10197639 -36.51625328 9.10197639 -35.18983459 9.1302948 C-32.83336567 9.10156933 -30.83006618 9.0198803 -28.5625 8.375 C-26.07961245 5.58831351 -26.07961245 5.58831351 -24.5625 2.375 C-17.75489094 -3.24867705 -7.94348843 -3.6233456 0 0 Z " fill="#783ACF" transform="translate(419.5625,86.625)"/>
<path d="M0 0 C1.14613014 -0.00218285 1.14613014 -0.00218285 2.31541443 -0.00440979 C3.92670515 -0.00275332 5.5380121 0.00877992 7.14916992 0.02954102 C9.61640475 0.05853864 12.08149559 0.05013803 14.54882812 0.03710938 C16.11589586 0.04334589 17.68295682 0.05173616 19.25 0.0625 C19.9875502 0.05956436 20.7251004 0.05662872 21.48500061 0.05360413 C26.59064794 0.14778964 26.59064794 0.14778964 28.75543213 1.75909424 C30.37056975 3.91193024 30.42323124 5.02133231 30.39916992 7.69213867 C30.39894333 8.53278366 30.39871674 9.37342865 30.39848328 10.23954773 C30.38299942 11.1427626 30.36751556 12.04597748 30.3515625 12.9765625 C30.34731766 13.90455154 30.34307281 14.83254059 30.33869934 15.78865051 C30.32190037 18.75392618 30.28424591 21.71852335 30.24609375 24.68359375 C30.23104849 26.69334956 30.21735981 28.70311602 30.20507812 30.71289062 C30.17199283 35.64088661 30.12020208 40.56837513 30.05859375 45.49609375 C31.21488281 45.92341797 31.21488281 45.92341797 32.39453125 46.359375 C37.03973335 48.34141871 39.44480857 51.39551343 41.87109375 55.74609375 C43.76397013 61.72359811 44.0721987 66.8651498 41.49609375 72.68359375 C38.66997887 77.73022746 34.56599783 81.66029239 29.05859375 83.49609375 C16.40908177 84.44526348 16.40908177 84.44526348 11.05859375 80.49609375 C7.55136169 77.06348365 5.14696618 74.3265669 4.05859375 69.49609375 C2.86258545 69.5118042 1.66657715 69.52751465 0.43432617 69.54370117 C-3.99919918 69.59796436 -8.43269513 69.63243065 -12.86645508 69.66088867 C-14.78610163 69.67598355 -16.70571365 69.69646148 -18.62524414 69.72241211 C-21.38306189 69.75876484 -24.14042405 69.77581287 -26.8984375 69.7890625 C-27.75790482 69.80454636 -28.61737213 69.82003021 -29.50288391 69.83598328 C-30.3034874 69.83620987 -31.10409088 69.83643646 -31.92895508 69.83666992 C-32.98485588 69.84666267 -32.98485588 69.84666267 -34.06208801 69.8568573 C-36.55675703 69.37796786 -37.42903199 68.50967149 -38.94140625 66.49609375 C-39.25184197 63.81471694 -39.38567694 61.36997582 -39.375 58.6875 C-39.38286278 57.54280495 -39.38286278 57.54280495 -39.3908844 56.37498474 C-39.39730379 54.76196509 -39.39596861 53.14889861 -39.38745117 51.53588867 C-39.37894767 49.07060115 -39.40768882 46.60763626 -39.43945312 44.14257812 C-39.44106546 42.57421944 -39.44048699 41.00585667 -39.4375 39.4375 C-39.44873398 38.70197403 -39.45996796 37.96644806 -39.47154236 37.20863342 C-39.42459937 33.75211282 -39.19363953 31.83337351 -37.09790039 29.03100586 C-34.15265693 26.9346914 -32.48037689 26.90626531 -28.94140625 27.49609375 C-26.09360006 29.72815806 -25.09142959 31.04602374 -23.94140625 34.49609375 C-23.86033939 36.05031104 -23.83383727 37.60776402 -23.84375 39.1640625 C-23.84697266 40.05673828 -23.85019531 40.94941406 -23.85351562 41.86914062 C-23.86189453 42.79791016 -23.87027344 43.72667969 -23.87890625 44.68359375 C-23.88341797 45.62396484 -23.88792969 46.56433594 -23.89257812 47.53320312 C-23.90435999 49.85423087 -23.92081067 52.17513019 -23.94140625 54.49609375 C-19.88374685 54.47665175 -15.82789891 54.42487502 -11.77099609 54.34350586 C-10.39188428 54.32035336 -9.01259635 54.30593649 -7.63330078 54.30053711 C-5.6472173 54.29122958 -3.66138899 54.2475789 -1.67578125 54.203125 C-0.48178711 54.18741455 0.71220703 54.1717041 1.94238281 54.15551758 C5.96367927 53.3045679 6.71513615 51.77082471 9.05859375 48.49609375 C9.95151123 48.03936279 10.84442871 47.58263184 11.7644043 47.11206055 C14.39223328 45.64985358 14.39223328 45.64985358 14.71801758 42.40161133 C14.74158325 40.5399231 14.74158325 40.5399231 14.765625 38.640625 C14.78074631 37.97898849 14.79586761 37.31735199 14.81144714 36.63566589 C14.85437158 34.52629652 14.86316502 32.41835657 14.87109375 30.30859375 C14.89423493 28.876915 14.91959951 27.44527033 14.94726562 26.01367188 C15.01015991 22.50784052 15.04246149 19.00248722 15.05859375 15.49609375 C14.19693604 15.51965942 14.19693604 15.51965942 13.31787109 15.54370117 C10.68988066 15.60644888 8.06204838 15.64520881 5.43359375 15.68359375 C4.52996094 15.70873047 3.62632812 15.73386719 2.6953125 15.75976562 C-2.60981629 15.81785098 -6.37983233 15.54452422 -10.94140625 12.49609375 C-12.36182446 9.65525734 -12.25592897 7.64132097 -11.94140625 4.49609375 C-8.72355614 -0.076152 -5.20722969 -0.07953207 0 0 Z " fill="#23C5E4" transform="translate(385.94140625,346.50390625)"/>
<path d="M0 0 C3.7856301 1.19177244 4.5024175 1.67656555 6.375 5.0625 C6.73576355 8.23895264 6.73576355 8.23895264 6.71557617 12.03417969 C6.71623329 13.07381111 6.71623329 13.07381111 6.71690369 14.13444519 C6.71481897 16.41804488 6.69150401 18.70090408 6.66796875 20.984375 C6.66237164 22.57049153 6.65810208 24.15661325 6.65510559 25.74273682 C6.6436658 29.91199123 6.61420626 34.08093079 6.58099365 38.25006104 C6.550274 42.50650778 6.53659621 46.76300554 6.52148438 51.01953125 C6.48933555 59.36733179 6.43814989 67.7148767 6.375 76.0625 C7.31972168 76.36269043 8.26444336 76.66288086 9.23779297 76.97216797 C15.31671612 79.08488943 19.85261898 83.50452845 22.8125 89.1875 C26.42736967 97.48418326 26.02964452 104.9649238 22.76953125 113.33984375 C19.87749211 118.98620588 14.7403065 124.51886104 8.609375 126.65625 C-0.0849582 128.23703785 -8.79564798 128.24208051 -16.5390625 123.67578125 C-22.85032808 118.79459645 -26.76641146 111.80762333 -27.94140625 103.9453125 C-28.33534433 96.80359633 -26.32001749 89.65150634 -22.01171875 83.9140625 C-18.6388576 80.36919291 -15.21916473 77.87879769 -10.625 76.0625 C-9.965 76.0625 -9.305 76.0625 -8.625 76.0625 C-8.63610306 75.18410965 -8.64720612 74.3057193 -8.65864563 73.40071106 C-8.75888774 65.11716497 -8.83498523 56.83382297 -8.88406086 48.54980946 C-8.91013973 44.29099945 -8.94550551 40.03269117 -9.00219727 35.77416992 C-9.05657963 31.6633328 -9.08643341 27.55297782 -9.09938622 23.4418087 C-9.10861508 21.8744822 -9.12663749 20.30718168 -9.15365028 18.74006081 C-9.19002658 16.54203192 -9.19494225 14.34598721 -9.19262695 12.14770508 C-9.20373001 10.89750076 -9.21483307 9.64729645 -9.22627258 8.35920715 C-8.22968179 2.89501654 -5.58219003 0.09624466 0 0 Z " fill="#10E4E9" transform="translate(258.625,373.9375)"/>
<path d="M0 0 C1.796875 1.125 1.796875 1.125 3.5 2.4375 C4.12390625 2.911875 4.7478125 3.38625 5.390625 3.875 C11.4894892 9.20509981 13.9652498 16.08310553 14.9375 24 C13.80187982 32.92273002 11.33846389 39.36818849 4.5 45.4375 C-1.11581921 49.4375 -1.11581921 49.4375 -4.5 49.4375 C-4.48334541 50.75508553 -4.48334541 50.75508553 -4.46635437 52.09928894 C-4.36611226 60.38283503 -4.29001477 68.66617703 -4.24093914 76.95019054 C-4.21486027 81.20900055 -4.17949449 85.46730883 -4.12280273 89.72583008 C-4.06842037 93.8366672 -4.03856659 97.94702218 -4.02561378 102.0581913 C-4.01638492 103.6255178 -3.99836251 105.19281832 -3.97134972 106.75993919 C-3.93497342 108.95796808 -3.93005775 111.15401279 -3.93237305 113.35229492 C-3.91571846 115.22760139 -3.91571846 115.22760139 -3.89872742 117.14079285 C-4.66855428 121.3616634 -6.13147156 122.85757122 -9.5 125.4375 C-13.21782605 125.50160045 -15.45388778 125.44709895 -18.18965149 122.80682373 C-19.97736167 119.57435228 -19.8601857 117.15241147 -19.84057617 113.46582031 C-19.84123329 112.42618889 -19.84123329 112.42618889 -19.84190369 111.36555481 C-19.83981897 109.08195512 -19.81650401 106.79909592 -19.79296875 104.515625 C-19.78737164 102.92950847 -19.78310208 101.34338675 -19.78010559 99.75726318 C-19.7686658 95.58800877 -19.73920626 91.41906921 -19.70599365 87.24993896 C-19.675274 82.99349222 -19.66159621 78.73699446 -19.64648438 74.48046875 C-19.61433555 66.13266821 -19.56314989 57.7851233 -19.5 49.4375 C-20.44472168 49.13730957 -21.38944336 48.83711914 -22.36279297 48.52783203 C-28.47313844 46.40418978 -32.99447229 41.97552664 -35.9375 36.25 C-39.25676186 28.94167009 -39.63564819 21.79736794 -36.8125 14.25 C-33.62671991 7.12884451 -29.61791896 2.64081131 -22.515625 -0.64453125 C-15.44215761 -2.79772404 -6.85515745 -3.06748291 0 0 Z " fill="#8C1ACA" transform="translate(269.5,12.5625)"/>
<path d="M0 0 C5.64845199 3.74793901 8.97085439 8.28600313 10.828125 14.81640625 C11.80525152 23.00524529 12.07443917 31.07334951 6.828125 37.81640625 C1.44721405 44.3827159 -3.98733569 47.54412668 -12.484375 48.69140625 C-20.26974674 49.18199132 -26.4785527 47.54669295 -32.546875 42.56640625 C-35.96851136 39.30407684 -38.16237955 36.08658408 -40.171875 31.81640625 C-40.171875 31.15640625 -40.171875 30.49640625 -40.171875 29.81640625 C-41.05026535 29.82750931 -41.9286557 29.83861237 -42.83366394 29.85005188 C-51.11721003 29.95029399 -59.40055203 30.02639148 -67.68456554 30.07546711 C-71.94337555 30.10154598 -76.20168383 30.13691176 -80.46020508 30.19360352 C-84.5710422 30.24798588 -88.68139718 30.27783966 -92.7925663 30.29079247 C-94.3598928 30.30002133 -95.92719332 30.31804374 -97.49431419 30.34505653 C-99.69234308 30.38143283 -101.88838779 30.3863485 -104.08666992 30.3840332 C-105.33687424 30.39513626 -106.58707855 30.40623932 -107.87516785 30.41767883 C-112.0960384 29.64785197 -113.59194622 28.18493469 -116.171875 24.81640625 C-116.23597545 21.0985802 -116.18147395 18.86251847 -113.54119873 16.12675476 C-110.30872728 14.33904458 -107.88678647 14.45622055 -104.20019531 14.47583008 C-103.16056389 14.47517296 -103.16056389 14.47517296 -102.09992981 14.47450256 C-99.81633012 14.47658728 -97.53347092 14.49990224 -95.25 14.5234375 C-93.66388347 14.52903461 -92.07776175 14.53330417 -90.49163818 14.53630066 C-86.32238377 14.54774045 -82.15344421 14.57719999 -77.98431396 14.6104126 C-73.72786722 14.64113225 -69.47136946 14.65481004 -65.21484375 14.66992188 C-56.86704321 14.7020707 -48.5194983 14.75325636 -40.171875 14.81640625 C-39.87168457 13.87168457 -39.57149414 12.92696289 -39.26220703 11.95361328 C-37.13856478 5.84326781 -32.70990164 1.32193396 -26.984375 -1.62109375 C-17.7184762 -5.82943475 -8.79487068 -4.79288816 0 0 Z " fill="#4E80D9" transform="translate(490.171875,235.18359375)"/>
<path d="M0 0 C5.28083272 3.79115249 9.76458189 7.74082928 12 14 C12 14.66 12 15.32 12 16 C12.87839035 15.98889694 13.7567807 15.97779388 14.66178894 15.96635437 C22.94533503 15.86611226 31.22867703 15.79001477 39.51269054 15.74093914 C43.77150055 15.71486027 48.02980883 15.67949449 52.28833008 15.62280273 C56.3991672 15.56842037 60.50952218 15.53856659 64.6206913 15.52561378 C66.1880178 15.51638492 67.75531832 15.49836251 69.32243919 15.47134972 C71.52046808 15.43497342 73.71651279 15.43005775 75.91479492 15.43237305 C77.16499924 15.42126999 78.41520355 15.41016693 79.70329285 15.39872742 C83.9241634 16.16855428 85.42007122 17.63147156 88 21 C88.06410045 24.71782605 88.00959895 26.95388778 85.36932373 29.68965149 C82.13685228 31.47736167 79.71491147 31.3601857 76.02832031 31.34057617 C74.98868889 31.34123329 74.98868889 31.34123329 73.92805481 31.34190369 C71.64445512 31.33981897 69.36159592 31.31650401 67.078125 31.29296875 C65.49200847 31.28737164 63.90588675 31.28310208 62.31976318 31.28010559 C58.15050877 31.2686658 53.98156921 31.23920626 49.81243896 31.20599365 C45.55599222 31.175274 41.29949446 31.16159621 37.04296875 31.14648438 C28.69516821 31.11433555 20.3476233 31.06314989 12 31 C11.69980957 31.94472168 11.39961914 32.88944336 11.09033203 33.86279297 C9.04040021 39.7610518 4.67422119 44.36823904 -0.75 47.4375 C-8.18869423 50.65423264 -16.03040964 50.79555292 -23.64453125 48.14453125 C-29.98109993 45.06556836 -34.5604156 40.05366854 -38 34 C-40.41272245 26.76183264 -40.16017156 17.39411928 -37 10.4375 C-32.89885949 3.50242532 -26.86814138 -0.33074015 -19.21875 -2.53125 C-12.45143438 -3.96096457 -6.18898319 -3.15208789 0 0 Z " fill="#4E80D9" transform="translate(50,234)"/>
<path d="M0 0 C0.7437236 -0.00846954 1.4874472 -0.01693909 2.25370789 -0.02566528 C4.70251749 -0.04898983 7.15069728 -0.05005871 9.59960938 -0.04882812 C11.30684662 -0.05593149 13.01408148 -0.06363075 14.72131348 -0.07189941 C18.29555911 -0.08533303 21.86958387 -0.08691762 25.44384766 -0.08105469 C30.02068752 -0.07515368 34.59646839 -0.1057711 39.17310333 -0.14617157 C42.69734389 -0.17203663 46.22132885 -0.17492722 49.74565125 -0.17127991 C51.4329444 -0.17297169 53.12024928 -0.18261989 54.80744934 -0.20042419 C57.16792519 -0.22259647 59.52624939 -0.21292425 61.88671875 -0.1953125 C62.58089401 -0.20857574 63.27506927 -0.22183899 63.99028015 -0.23550415 C67.76356141 -0.17018906 69.37240355 0.36443818 72.38017273 2.71635437 C75.14784077 6.34306327 75.07988806 9.4078356 74.93164062 13.78320312 C74.92456589 14.575186 74.91749115 15.36716888 74.91020203 16.18315125 C74.88232181 18.70055576 74.81960137 21.21569544 74.75585938 23.73242188 C74.73076799 25.44397818 74.70795628 27.15556952 74.6875 28.8671875 C74.63251684 33.05229842 74.54629355 37.23572683 74.44335938 41.41992188 C75.23194336 41.71648682 76.02052734 42.01305176 76.83300781 42.31860352 C79.62036671 43.49460202 80.80141876 44.54228402 82.69335938 46.85742188 C83.44359375 47.75267578 83.44359375 47.75267578 84.20898438 48.66601562 C87.77093246 53.72713806 87.14413183 60.54840125 86.44335938 66.41992188 C84.47206121 71.47546515 81.43118911 75.2061436 76.75585938 77.98242188 C71.1007135 80.32882083 64.93748739 80.51074314 59.10351562 78.68945312 C53.14150418 75.96935479 50.00270067 72.25835376 47.63085938 66.16992188 C45.76081654 59.99467053 46.16001003 54.89155765 49.13085938 49.16992188 C51.72087153 46.08990742 54.20852853 43.8108838 57.44335938 41.41992188 C58.10335937 41.41992188 58.76335937 41.41992188 59.44335938 41.41992188 C59.44335938 32.83992188 59.44335938 24.25992187 59.44335938 15.41992188 C56.33945801 15.459198 56.33945801 15.459198 53.17285156 15.49926758 C46.33575129 15.58211879 39.49862882 15.63734615 32.66115952 15.67898273 C28.51553544 15.70507608 24.3704257 15.74046806 20.22509766 15.79711914 C16.22448932 15.85145024 12.22437561 15.88134439 8.22342682 15.89430809 C6.69713808 15.90354619 5.1708764 15.9215866 3.64479828 15.94857216 C1.50641927 15.98488081 -0.62991697 15.98986702 -2.76855469 15.98754883 C-3.98544983 15.99865189 -5.20234497 16.00975494 -6.45611572 16.02119446 C-9.55664062 15.41992188 -9.55664062 15.41992188 -11.97698975 13.11100769 C-13.55664062 10.41992188 -13.55664062 10.41992188 -13.61914062 6.79492188 C-12.55664062 3.41992188 -12.55664062 3.41992188 -10.46252441 1.73522949 C-6.91307168 0.1286194 -3.82171547 -0.01613415 0 0 Z " fill="#37A5DF" transform="translate(387.556640625,297.580078125)"/>
<path d="M0 0 C0.7437236 -0.00554901 1.4874472 -0.01109802 2.25370789 -0.01681519 C4.70300491 -0.02859027 7.15044281 -0.00436063 9.59960938 0.02148438 C11.30684322 0.02319615 13.01407969 0.02312912 14.72131348 0.0213623 C18.29574806 0.02301432 21.86955455 0.04168994 25.44384766 0.07324219 C30.02049387 0.11291968 34.59631776 0.11728675 39.17310333 0.10977936 C42.6973623 0.10670656 46.22143716 0.11884115 49.74565125 0.13591003 C51.43290553 0.14293026 53.12018067 0.14606575 54.80744934 0.1452179 C57.16758777 0.14702014 59.52674969 0.16843711 61.88671875 0.1953125 C62.58089401 0.1923819 63.27506927 0.18945129 63.99028015 0.18643188 C68.27763281 0.26157899 71.07820834 0.90800911 74.44335938 3.61523438 C75.50585938 6.99023438 75.50585938 6.99023438 75.44335938 10.61523438 C73.8637085 13.30632019 73.8637085 13.30632019 71.44335938 15.61523438 C68.34283447 16.21650696 68.34283447 16.21650696 64.65527344 16.18286133 C63.98169296 16.18359146 63.30811249 16.18432159 62.61412048 16.18507385 C60.39491312 16.18159931 58.17782343 16.14275123 55.95898438 16.10351562 C54.41771593 16.09418686 52.87643263 16.08707104 51.33514404 16.08207703 C47.28398501 16.06301175 43.23372634 16.01391642 39.18292236 15.95855713 C35.04720235 15.90735365 30.91133644 15.88456073 26.77539062 15.859375 C18.66425488 15.80579566 10.55402295 15.71786503 2.44335938 15.61523438 C2.44335938 24.19523437 2.44335938 32.77523437 2.44335938 41.61523438 C4.09335938 42.27523437 5.74335937 42.93523437 7.44335938 43.61523438 C11.5544785 47.04890046 14.32152798 51.15994695 15.32617188 56.43945312 C15.69288923 63.24817198 13.89470334 69.42199975 9.44335938 74.61523438 C2.86900339 79.579544 -2.4964965 80.36604232 -10.55664062 79.61523438 C-16.55184188 78.10108798 -20.32365755 74.54236487 -23.48632812 69.31445312 C-25.75326146 63.5974789 -25.71375189 57.25370647 -23.85351562 51.40429688 C-21.65635436 47.14031441 -18.37729441 44.35613817 -14.55664062 41.61523438 C-13.89664063 41.61523438 -13.23664062 41.61523438 -12.55664062 41.61523438 C-12.58282471 40.55087158 -12.60900879 39.48650879 -12.63598633 38.38989258 C-12.72668838 34.42982111 -12.78396152 30.46984087 -12.83129883 26.5090332 C-12.85639776 24.79696193 -12.89048492 23.08499734 -12.93383789 21.37329102 C-12.99469802 18.90809792 -13.02289495 16.44432452 -13.04492188 13.97851562 C-13.0707283 13.216866 -13.09653473 12.45521637 -13.12312317 11.67048645 C-13.12509467 7.90989056 -12.79622793 5.92918584 -10.49345398 2.91166687 C-6.924477 0.1209159 -4.34908793 -0.08309575 0 0 Z " fill="#37A5DF" transform="translate(62.556640625,297.384765625)"/>
<path d="M0 0 C1.70137024 1.12971497 1.70137024 1.12971497 3 3 C3.36076355 5.98027039 3.36076355 5.98027039 3.34057617 9.67456055 C3.34101425 10.347995 3.34145233 11.02142944 3.34190369 11.715271 C3.33981501 13.93938269 3.3164815 16.16273888 3.29296875 18.38671875 C3.28737305 19.92942391 3.28310283 21.4721344 3.28010559 23.0148468 C3.26865471 27.07397191 3.23918569 31.13277466 3.20599365 35.19177246 C3.17529787 39.33418415 3.16160132 43.47664797 3.14648438 47.61914062 C3.11431593 55.74625813 3.06154627 63.87305182 3 72 C11.58 72 20.16 72 29 72 C29.66 70.35 30.32 68.7 31 67 C34.43366609 62.88888087 38.54471257 60.12183139 43.82421875 59.1171875 C50.6329376 58.75047015 56.80676537 60.54865603 62 65 C66.95542859 71.56259462 67.77094823 76.94909773 67 85 C65.42887499 90.63144205 62.50949511 93.91915132 57.68359375 97.08984375 C52.49405432 99.89532562 46.72447134 99.52715625 41 99 C35.5963942 97.29616033 32.20900246 93.47315495 29 89 C29 88.34 29 87.68 29 87 C27.93563721 87.02618408 26.87127441 87.05236816 25.7746582 87.0793457 C21.81458673 87.17004776 17.85460649 87.22732089 13.89379883 87.2746582 C12.18172755 87.29975714 10.46976296 87.33384429 8.75805664 87.37719727 C6.29286355 87.43805739 3.82909015 87.46625432 1.36328125 87.48828125 C0.22080681 87.52699089 0.22080681 87.52699089 -0.94474792 87.56648254 C-4.70534382 87.56845404 -6.68604854 87.23958731 -9.7035675 84.93681335 C-12.49431848 81.36783637 -12.69833013 78.79244731 -12.61523438 74.44335938 C-12.62078339 73.69963577 -12.6263324 72.95591217 -12.63204956 72.18965149 C-12.64382465 69.74035447 -12.61959501 67.29291657 -12.59375 64.84375 C-12.59203823 63.13651616 -12.59210526 61.42927969 -12.59387207 59.7220459 C-12.59222005 56.14761131 -12.57354443 52.57380482 -12.54199219 48.99951172 C-12.50231469 44.42286551 -12.49794762 39.84704161 -12.50545502 35.27025604 C-12.50852781 31.74599707 -12.49639323 28.22192221 -12.47932434 24.69770813 C-12.47230412 23.01045385 -12.46916862 21.32317871 -12.47001648 19.63591003 C-12.46821423 17.27577161 -12.44679726 14.91660969 -12.41992188 12.55664062 C-12.42285248 11.86246536 -12.42578308 11.1682901 -12.42880249 10.45307922 C-12.35343768 6.15330621 -11.62162341 3.42750688 -9 0 C-5.85000502 -1.57499749 -3.36459118 -0.70833498 0 0 Z " fill="#15DCE7" transform="translate(310,375)"/>
<path d="M0 0 C5.23080063 3.21158974 8.72469659 6.9372535 10.28515625 12.94140625 C11.27032793 20.04501256 10.57437392 26.06975875 6.28515625 31.94140625 C3.78515625 34.31640625 3.78515625 34.31640625 1.28515625 35.94140625 C0.68703125 36.33328125 0.08890625 36.72515625 -0.52734375 37.12890625 C-5.89498708 39.12260234 -11.20749897 39.45541088 -16.6875 37.87109375 C-20.63139856 36.0625237 -23.923525 33.24087031 -26.71484375 29.94140625 C-27.20984375 27.96140625 -27.20984375 27.96140625 -27.71484375 25.94140625 C-36.29484375 25.94140625 -44.87484375 25.94140625 -53.71484375 25.94140625 C-53.68865967 28.01067383 -53.66247559 30.07994141 -53.63549805 32.21191406 C-53.55264683 39.04901434 -53.49741947 45.8861368 -53.45578289 52.72360611 C-53.42968954 56.86923018 -53.39429757 61.01433993 -53.33764648 65.15966797 C-53.28331539 69.16027631 -53.25342124 73.16039001 -53.24045753 77.16133881 C-53.23121944 78.68762754 -53.21317902 80.21388922 -53.18619347 81.73996735 C-53.14988482 83.87834636 -53.1448986 86.0146826 -53.1472168 88.15332031 C-53.13611374 89.37021545 -53.12501068 90.5871106 -53.11357117 91.84088135 C-53.71484375 94.94140625 -53.71484375 94.94140625 -56.02375793 97.36175537 C-58.71484375 98.94140625 -58.71484375 98.94140625 -62.33984375 99.00390625 C-65.71484375 97.94140625 -65.71484375 97.94140625 -67.39953613 95.84729004 C-69.00614623 92.2978373 -69.15089978 89.2064811 -69.13476562 85.38476562 C-69.14323517 84.64104202 -69.15170471 83.89731842 -69.16043091 83.13105774 C-69.18375546 80.68224813 -69.18482434 78.23406834 -69.18359375 75.78515625 C-69.19069712 74.07791901 -69.19839637 72.37068415 -69.20666504 70.66345215 C-69.22009865 67.08920652 -69.22168325 63.51518175 -69.21582031 59.94091797 C-69.20991931 55.36407811 -69.24053673 50.78829724 -69.28093719 46.21166229 C-69.30680225 42.68742173 -69.30969284 39.16343677 -69.30604553 35.63911438 C-69.30773731 33.95182123 -69.31738552 32.26451635 -69.33518982 30.57731628 C-69.3573621 28.21684044 -69.34768987 25.85851623 -69.33007812 23.49804688 C-69.34334137 22.80387161 -69.35660461 22.10969635 -69.37026978 21.39448547 C-69.30495469 17.62120421 -68.77032744 16.01236207 -66.41841125 13.0045929 C-62.79170235 10.23692485 -59.72693003 10.30487757 -55.3515625 10.453125 C-54.16358818 10.46373711 -54.16358818 10.46373711 -52.95161438 10.4745636 C-50.43420986 10.50244381 -47.91907019 10.56516425 -45.40234375 10.62890625 C-43.69078745 10.65399764 -41.9791961 10.67680934 -40.26757812 10.69726562 C-36.08246721 10.75224878 -31.89903879 10.83847207 -27.71484375 10.94140625 C-27.41827881 10.15282227 -27.12171387 9.36423828 -26.81616211 8.55175781 C-25.64016361 5.76439892 -24.5924816 4.58334686 -22.27734375 2.69140625 C-21.68050781 2.19125 -21.08367187 1.69109375 -20.46875 1.17578125 C-14.97009691 -2.69409487 -6.0410749 -2.3555846 0 0 Z " fill="#8822CB" transform="translate(366.71484375,39.05859375)"/>
<path d="M0 0 C3.375 1.0625 3.375 1.0625 5.06167603 3.16235352 C6.6580498 6.68754446 6.79682877 9.73313899 6.76318359 13.52734375 C6.76844055 14.26131378 6.77369751 14.99528381 6.77911377 15.75149536 C6.79227392 18.16788265 6.7835902 20.58360648 6.7734375 23 C6.77545939 24.68481573 6.77837179 26.36963061 6.78213501 28.05444336 C6.78655295 31.58162792 6.78014446 35.10858421 6.76611328 38.63574219 C6.7490216 43.15181143 6.75886564 47.66734576 6.77683067 52.18339539 C6.78768289 55.66129571 6.78421559 59.1390697 6.7764473 62.61697388 C6.77444926 64.28191186 6.77689063 65.9468614 6.78388596 67.61178589 C6.79152426 69.94071745 6.77986378 72.2687886 6.76318359 74.59765625 C6.76925629 75.28248077 6.77532898 75.9673053 6.78158569 76.67288208 C6.72490133 80.95545308 5.98202773 83.64895522 3.375 87.0625 C0.20209287 88.64895357 -3.21325384 88.18328213 -6.6953125 88.16015625 C-7.49154022 88.1587413 -8.28776794 88.15732635 -9.10812378 88.15586853 C-11.6554538 88.15026345 -14.20269647 88.13771014 -16.75 88.125 C-18.47525915 88.11998565 -20.20051967 88.11542263 -21.92578125 88.11132812 C-26.15888791 88.10029237 -30.39192914 88.08302436 -34.625 88.0625 C-34.89570313 88.83207031 -35.16640625 89.60164063 -35.4453125 90.39453125 C-37.53329041 95.11667996 -41.90667521 98.15330263 -46.625 100.0625 C-53.09923551 100.96386612 -59.0246914 101.02749705 -64.6875 97.5 C-69.58783221 93.60855972 -72.20564025 90.21576271 -73.03125 84.0078125 C-73.31841616 77.79066512 -73.04775369 72.79056337 -69.23828125 67.71484375 C-64.90390904 63.27552306 -59.96735059 60.33943151 -53.6953125 59.93359375 C-46.97582056 60.35197721 -41.93957201 63.12276736 -36.9375 67.46484375 C-35.625 69.0625 -35.625 69.0625 -34.625 73.0625 C-26.045 73.0625 -17.465 73.0625 -8.625 73.0625 C-8.65118408 70.99323242 -8.67736816 68.92396484 -8.7043457 66.79199219 C-8.78719692 59.95489191 -8.84242428 53.11776945 -8.88406086 46.28030014 C-8.91015421 42.13467607 -8.94554618 37.98956632 -9.00219727 33.84423828 C-9.05652836 29.84362994 -9.08642251 25.84351624 -9.09938622 21.84256744 C-9.10862431 20.31627871 -9.12666473 18.79001703 -9.15365028 17.2639389 C-9.18995893 15.12555989 -9.19494515 12.98922365 -9.19262695 10.85058594 C-9.20928154 9.02524323 -9.20928154 9.02524323 -9.22627258 7.1630249 C-8.625 4.0625 -8.625 4.0625 -6.31608582 1.64215088 C-3.625 0.0625 -3.625 0.0625 0 0 Z " fill="#15DCE7" transform="translate(210.625,373.9375)"/>
<path d="M0 0 C4.64398163 2.79804751 7.62474362 6.5436749 9.625 11.5625 C10.68273187 17.7871379 10.68922812 23.57427939 7.4375 29.125 C5.20587618 32.1237445 2.77853423 34.51696428 -0.375 36.5625 C-1.035 36.5625 -1.695 36.5625 -2.375 36.5625 C-2.35928955 37.63209961 -2.3435791 38.70169922 -2.32739258 39.80371094 C-2.27303949 43.77694145 -2.23863049 47.75013916 -2.21020508 51.72363281 C-2.19513067 53.44243905 -2.17466771 55.16120691 -2.14868164 56.87988281 C-2.11223835 59.35230997 -2.09526042 61.824228 -2.08203125 64.296875 C-2.06654739 65.06368591 -2.05106354 65.83049683 -2.03511047 66.62054443 C-2.03409811 69.83932251 -2.15628104 72.15916795 -3.70581055 75.01660156 C-7.14054976 78.1976413 -11.21726948 77.71653243 -15.61279297 77.72363281 C-16.71330994 77.73108017 -16.71330994 77.73108017 -17.83605957 77.73867798 C-20.26311176 77.75328255 -22.69009859 77.76009854 -25.1171875 77.765625 C-26.80486045 77.77137761 -28.49253338 77.77713533 -30.1802063 77.78289795 C-33.71926172 77.79340291 -37.25829446 77.79924896 -40.79736328 77.80273438 C-45.32913072 77.80821979 -49.86059781 77.83225084 -54.39227104 77.86070633 C-57.87872185 77.87934195 -61.36510042 77.88453879 -64.85159683 77.88607025 C-66.52213306 77.88909494 -68.19266807 77.89711729 -69.86315536 77.91025543 C-72.20180796 77.92733651 -74.53972806 77.92543102 -76.87841797 77.91894531 C-77.56638458 77.9281601 -78.2543512 77.93737488 -78.96316528 77.9468689 C-83.24807374 77.90969942 -86.01390759 77.26797819 -89.375 74.5625 C-90.4375 71.1875 -90.4375 71.1875 -90.375 67.5625 C-88.79534912 64.87141418 -88.79534912 64.87141418 -86.375 62.5625 C-83.2744751 61.96122742 -83.2744751 61.96122742 -79.58691406 61.99487305 C-78.57654335 61.99377785 -78.57654335 61.99377785 -77.54576111 61.99266052 C-75.32655375 61.99613507 -73.10946405 62.03498314 -70.890625 62.07421875 C-69.34935655 62.08354752 -67.80807325 62.09066333 -66.26678467 62.09565735 C-62.21562564 62.11472263 -58.16536696 62.16381795 -54.11456299 62.21917725 C-49.97884297 62.27038072 -45.84297706 62.29317365 -41.70703125 62.31835938 C-33.5958955 62.37193871 -25.48566357 62.45986935 -17.375 62.5625 C-17.375 53.9825 -17.375 45.4025 -17.375 36.5625 C-19.025 35.9025 -20.675 35.2425 -22.375 34.5625 C-27.53719904 30.56558291 -29.46684099 25.68862675 -30.3203125 19.33984375 C-30.43460946 13.53519084 -28.54094832 8.78402099 -25.0625 4.1875 C-18.27153773 -2.44553292 -8.82749496 -3.7007575 0 0 Z " fill="#645AD4" transform="translate(464.375,139.4375)"/>
<path d="M0 0 C5.01306599 3.7624491 8.32974311 8.75361621 9.5 14.9375 C9.90549322 21.00797198 7.80229415 26.65469021 4.125 31.4375 C1.5 34 1.5 34 -3.5 36 C-3.5 44.58 -3.5 53.16 -3.5 62 C-1.43073242 61.97381592 0.63853516 61.94763184 2.77050781 61.9206543 C9.60760809 61.83780308 16.44473055 61.78257572 23.28219986 61.74093914 C27.42782393 61.71484579 31.57293368 61.67945382 35.71826172 61.62280273 C39.71887006 61.56847164 43.71898376 61.53857749 47.71993256 61.52561378 C49.24622129 61.51637569 50.77248297 61.49833527 52.2985611 61.47134972 C54.43694011 61.43504107 56.57327635 61.43005485 58.71191406 61.43237305 C60.53725677 61.41571846 60.53725677 61.41571846 62.3994751 61.39872742 C65.5 62 65.5 62 67.92034912 64.30891418 C69.5 67 69.5 67 69.5625 70.625 C68.5 74 68.5 74 66.40014648 75.68667603 C62.87495554 77.2830498 59.82936101 77.42182877 56.03515625 77.38818359 C55.30118622 77.39344055 54.56721619 77.39869751 53.81100464 77.40411377 C51.39461735 77.41727392 48.97889352 77.4085902 46.5625 77.3984375 C44.87768427 77.40045939 43.19286939 77.40337179 41.50805664 77.40713501 C37.98087208 77.41155295 34.45391579 77.40514446 30.92675781 77.39111328 C26.41068857 77.3740216 21.89515424 77.38386564 17.37910461 77.40183067 C13.90120429 77.41268289 10.4234303 77.40921559 6.94552612 77.4014473 C5.28058814 77.39944926 3.6156386 77.40189063 1.95071411 77.40888596 C-0.37821745 77.41652426 -2.7062886 77.40486378 -5.03515625 77.38818359 C-5.71998077 77.39425629 -6.4048053 77.40032898 -7.11038208 77.40658569 C-11.39295308 77.34990133 -14.08645522 76.60702773 -17.5 74 C-19.08645357 70.82709287 -18.62078213 67.41174616 -18.59765625 63.9296875 C-18.5962413 63.13345978 -18.59482635 62.33723206 -18.59336853 61.51687622 C-18.58776345 58.9695462 -18.57521014 56.42230353 -18.5625 53.875 C-18.55748565 52.14974085 -18.55292263 50.42448033 -18.54882812 48.69921875 C-18.53779237 44.46611209 -18.52052436 40.23307086 -18.5 36 C-19.26957031 35.72929687 -20.03914063 35.45859375 -20.83203125 35.1796875 C-25.55417996 33.09170959 -28.59080263 28.71832479 -30.5 24 C-31.40136612 17.52576449 -31.46499705 11.6003086 -27.9375 5.9375 C-21.12628679 -2.6395833 -10.00936272 -5.60296395 0 0 Z " fill="#645AD3" transform="translate(68.5,140)"/>
<path d="M0 0 C3.9682278 2.34823967 6.99582296 5.15013592 9.5234375 9.046875 C9.5234375 9.706875 9.5234375 10.366875 9.5234375 11.046875 C10.59303711 11.03116455 11.66263672 11.0154541 12.76464844 10.99926758 C16.73787895 10.94491449 20.71107666 10.91050549 24.68457031 10.88208008 C26.40337655 10.86700567 28.12214441 10.84654271 29.84082031 10.82055664 C32.31324747 10.78411335 34.7851655 10.76713542 37.2578125 10.75390625 C38.02462341 10.73842239 38.79143433 10.72293854 39.58148193 10.70698547 C42.80026001 10.70597311 45.12010545 10.82815604 47.97753906 12.37768555 C51.1585788 15.81242476 50.67746993 19.88914448 50.68457031 24.28466797 C50.69201767 25.38518494 50.69201767 25.38518494 50.69961548 26.50793457 C50.71422005 28.93498676 50.72103604 31.36197359 50.7265625 33.7890625 C50.73231511 35.47673545 50.73807283 37.16440838 50.74383545 38.8520813 C50.75434041 42.39113672 50.76018646 45.93016946 50.76367188 49.46923828 C50.76915729 54.00100572 50.79318834 58.53247281 50.82164383 63.06414604 C50.84027945 66.55059685 50.84547629 70.03697542 50.84700775 73.52347183 C50.85003244 75.19400806 50.85805479 76.86454307 50.87119293 78.53503036 C50.88827401 80.87368296 50.88636852 83.21160306 50.87988281 85.55029297 C50.8890976 86.23825958 50.89831238 86.9262262 50.9078064 87.63504028 C50.87063692 91.91994874 50.22891569 94.68578259 47.5234375 98.046875 C44.1484375 99.109375 44.1484375 99.109375 40.5234375 99.046875 C37.83235168 97.46722412 37.83235168 97.46722412 35.5234375 95.046875 C34.92216492 91.9463501 34.92216492 91.9463501 34.95581055 88.25878906 C34.95508041 87.58520859 34.95435028 86.91162811 34.95359802 86.21763611 C34.95707257 83.99842875 34.99592064 81.78133905 35.03515625 79.5625 C35.04448502 78.02123155 35.05160083 76.47994825 35.05659485 74.93865967 C35.07566013 70.88750064 35.12475545 66.83724196 35.18011475 62.78643799 C35.23131822 58.65071797 35.25411115 54.51485206 35.27929688 50.37890625 C35.33287621 42.2677705 35.42080685 34.15753857 35.5234375 26.046875 C26.9434375 26.046875 18.3634375 26.046875 9.5234375 26.046875 C8.8634375 27.696875 8.2034375 29.346875 7.5234375 31.046875 C3.52652041 36.20907404 -1.35043575 38.13871599 -7.69921875 38.9921875 C-13.50387166 39.10648446 -18.25504151 37.21282332 -22.8515625 33.734375 C-27.49580702 28.97955323 -28.69457856 25.31019068 -29.0390625 18.734375 C-28.87075152 12.03253785 -27.11866512 7.854767 -22.4765625 3.046875 C-16.24680775 -2.16577694 -7.61083621 -2.92909154 0 0 Z " fill="#8822CB" transform="translate(166.4765625,38.953125)"/>
<path d="M0 0 C3.33025917 2.6804525 4.28172552 5.90316409 5.69921875 9.85546875 C5.9391304 10.51710526 6.17904205 11.17874176 6.42622375 11.86042786 C7.18791632 13.96669165 7.93782874 16.07693144 8.6875 18.1875 C9.20300375 19.61941889 9.71927124 21.05106308 10.23632812 22.48242188 C11.50121956 25.98472962 12.75008515 29.49217445 14 33 C5.42 33 -3.16 33 -12 33 C-8.625 21.75 -8.625 21.75 -6.73828125 16.9921875 C-6.34189453 15.98671875 -5.94550781 14.98125 -5.53710938 13.9453125 C-5.13298828 12.93210938 -4.72886719 11.91890625 -4.3125 10.875 C-3.68891602 9.2971875 -3.68891602 9.2971875 -3.05273438 7.6875 C-2.03880049 5.12352925 -1.02117166 2.56109468 0 0 Z " fill="#4F7CD9" transform="translate(238,229)"/>
</svg>
